<svg width="295" height="46" viewBox="0 0 295 46" fill="none" xmlns="http://www.w3.org/2000/svg">
<g clip-path="url(#clip0)">
<path fill-rule="evenodd" clip-rule="evenodd" d="M8.57758 18.2176C8.54713 18.3358 8.32541 18.6068 8.24751 18.645C8.24751 18.8302 8.13584 19.0058 7.9656 19.1202C7.9656 19.4108 7.47767 19.5392 7.41638 19.8489C7.36038 20.1313 7.24037 20.3988 7.02394 20.5452C7.02394 20.8068 6.60072 20.9067 6.60072 21.1629C6.47412 21.2278 6.35793 21.6381 6.27153 21.6381C6.27153 21.8152 6.0794 21.9387 6.03576 22.1604C5.93553 22.2119 5.80037 22.4465 5.80037 22.5885C5.57784 22.6995 5.64844 22.997 5.42375 23.1102C5.42375 23.2704 5.23543 23.468 5.23543 23.6334C5.15159 23.6334 4.95305 24.5043 4.95305 24.631C4.76984 24.631 4.83836 26.222 4.9056 26.4792C5.04732 27.0237 5.08115 27.6105 5.42375 27.9563C5.51334 28.0465 5.56847 28.205 5.61205 28.3367C5.68058 28.3704 5.92959 28.6185 5.98853 28.6926C6.12494 28.8644 7.02394 29.0846 7.02394 29.144C7.47745 29.2096 7.72297 29.4765 8.10642 29.4765C8.10642 29.4744 9.38833 29.8825 9.51831 29.904C9.51831 30.0919 10.1306 30.029 10.1306 30.189C10.534 30.2304 10.9372 30.2706 11.3407 30.3114C11.7463 30.3529 12.1591 30.6048 12.5779 30.7115C12.5779 30.8694 13.4506 30.9371 13.668 30.9106C14.1885 30.848 14.6003 30.9966 15.0371 30.9966C15.7415 30.9966 16.3892 31.1867 17.0968 31.1867C17.0968 31.4278 18.75 31.139 18.8849 31.139C18.8849 30.9822 20.6228 30.7985 20.8486 30.7627C21.1961 30.7073 21.5437 30.6518 21.891 30.5945C22.2296 30.5387 22.3519 30.2981 22.7127 30.189C23.1753 30.0489 23.3697 29.8653 23.7796 29.7616C23.7796 29.7676 24.6484 29.3337 24.7212 29.3337C24.8486 29.1398 25.0838 29.0835 25.2155 28.9063C25.3432 28.7351 25.6322 28.4939 25.8269 28.3367C26.0477 28.1582 26.2744 27.5485 26.2744 27.2911C26.4668 27.2911 26.4119 26.3177 26.2744 26.1511C26.015 26.0641 25.9267 25.9552 25.6469 25.9767C25.2332 26.0089 24.8868 26.0772 24.4386 26.1034C24.4386 26.2398 23.4504 26.301 23.4504 26.4363C23.1638 26.4363 22.8759 26.4836 22.6505 26.4836C22.6505 26.5989 22.1353 26.6264 21.9912 26.6264C21.9912 26.7763 20.6266 26.7381 20.6266 26.8637C20.5279 26.8637 20.0612 26.9378 20.0612 27.0065C19.8912 27.0162 19.0732 27.0205 19.0732 27.1487C18.7426 27.1268 17.8701 27.2911 17.8024 27.2911C17.8024 27.3921 14.7431 27.9016 14.4996 27.9666C14.1913 28.0493 14.0702 27.9204 13.7606 27.9391C13.4931 27.9563 13.4153 27.8141 13.2367 27.8141C13.1613 27.6595 13.1241 27.7787 13.0488 27.6236C12.9001 27.6236 12.8592 27.4802 12.7428 27.3861C12.55 27.231 12.5479 27.0231 12.3896 26.8637C12.2936 26.7664 12.1557 26.1511 11.9657 26.1511C11.895 25.9359 11.4793 24.8211 11.3543 24.8211C11.3543 24.587 11.2824 24.523 11.3516 24.275C11.4133 24.0533 11.4486 23.787 11.4486 23.6095C11.4486 23.5294 11.5382 23.1102 11.5897 23.1102C11.6063 22.7839 11.6835 22.3694 11.6835 22.1127C11.8518 22.1127 11.8536 21.1151 12.1076 21.1151C12.1076 20.9754 12.1631 20.8025 12.2957 20.7353C12.3698 20.4396 12.5209 20.3053 12.6958 20.0699C12.8737 19.8306 13.3546 19.7322 13.6291 19.6191C13.7557 19.5665 14.5075 19.5514 14.5075 19.4999C14.6954 19.4999 15.8728 19.3635 15.8728 19.2153C16.1665 19.2153 16.525 19.1498 16.8766 19.1358C17.1719 19.1242 17.3047 19.0252 17.52 19.0252C17.52 18.7406 18.8634 18.6805 19.1671 18.645C19.1671 18.5892 19.5539 18.5026 19.638 18.5026C19.638 18.3877 20.2772 18.386 20.4194 18.3787C20.9526 18.3533 21.2752 18.1225 21.7559 18.1225C22.2228 18.1225 22.5443 17.9378 23.058 17.9115C23.4659 17.8901 23.8743 17.869 24.2818 17.8482C24.5422 17.8347 24.6872 17.7423 24.9566 17.7423C24.9566 17.7266 26.3614 17.5529 26.5098 17.5529C26.5098 17.5539 27.152 17.4004 27.2649 17.3604C27.605 17.2425 28.0393 17.1727 28.3453 17.1727C28.3453 17.1684 28.7006 17.0159 28.7724 16.9848C29.0664 16.858 29.2129 16.9322 29.4454 16.9547C29.7078 16.9801 29.9864 16.9289 30.2392 16.8634C30.4545 16.8076 30.7228 16.6929 30.9284 16.7668C31.058 16.8134 31.7808 16.7433 31.7808 16.8396C32.0392 16.8396 32.103 16.9347 32.3458 16.9347C32.3458 16.9605 33.2921 17.1727 33.381 17.1727C33.381 17.2769 33.7233 17.2579 33.8051 17.2672C33.9584 17.3746 34.1114 17.4811 34.2639 17.5883C34.4555 17.7217 34.5989 17.9523 34.6521 18.1858C34.7285 18.5173 34.8629 18.6886 34.9349 18.978C35.1334 19.0778 35.1488 19.3961 35.3579 19.4999C35.4994 19.9241 35.6882 20.1646 35.6882 20.5931C35.8165 20.5931 35.8457 21.5908 35.9704 21.5908C35.9704 21.7356 36.2336 22.5406 36.2996 22.5406C36.3274 22.8848 36.3866 23.1628 36.4744 23.4912C36.5853 23.9057 36.3949 24.3615 36.2996 24.7642C36.2587 24.9375 36.1361 25.2576 35.9704 25.3435C35.9704 25.467 35.8654 25.6871 35.782 25.7709C35.6903 25.8639 35.4994 26.1178 35.4994 26.2462C35.4513 26.2462 35.2641 26.6425 35.2641 26.7209C35.14 26.7209 35.119 27.3388 34.9821 27.3388C34.9511 27.4619 34.8013 27.8614 34.6993 27.8614C34.6993 28.1936 34.4172 28.5755 34.4172 29.0013C34.4112 29.0013 33.9978 29.8588 34.0093 29.9828C34.0605 30.5509 33.829 30.7571 33.7577 31.3295C33.7215 31.6223 33.6167 31.8041 33.6167 32.0421C33.5604 32.0421 33.4758 32.3428 33.4758 32.4223C33.3102 32.4223 33.4998 33.2771 33.3347 33.2771C33.2723 33.5854 33.1859 33.6745 33.1464 34.0368C33.1264 34.2183 32.9487 35.2246 32.8638 35.2246C32.8638 35.3165 32.7837 35.7471 32.7225 35.7471C32.7225 36.1789 32.7608 36.457 32.7342 36.8876C32.7161 37.1802 32.6286 37.3316 32.6286 37.6785C32.6286 37.7872 32.5758 38.2182 32.4869 38.2182C32.4869 38.4491 32.4022 38.6478 32.4744 38.9463C32.5597 39.3029 32.5816 39.5746 32.5816 39.9279C32.7563 39.9279 32.6752 41.4529 32.6752 41.6623C32.6752 42.2379 32.4905 42.6771 32.452 43.3004C32.415 43.8997 32.0139 44.21 31.9228 44.6789C31.6689 44.806 29.2407 46.1459 28.693 45.9869C28.5653 45.95 28.6374 45.8666 28.4866 45.8666C28.4866 45.7635 28.2236 45.7221 28.1415 45.692C27.9795 45.633 27.7065 45.4815 27.6397 45.3436C27.5567 45.3436 26.6036 44.9742 26.6036 45.0112C26.5053 45.0112 26.2271 44.9167 26.2271 44.8211C26.1352 44.8211 25.9742 44.7551 25.8973 44.6789C25.6617 44.4426 25.1402 44.3292 25.1789 43.882C25.201 43.628 25.2787 43.4701 25.1449 43.2059C25.0487 43.1206 25.0178 42.6836 24.9566 42.6836C24.985 41.928 25.0979 41.3519 25.0979 40.6693C25.0979 39.953 25.0506 39.1976 25.0506 38.5505C25.0253 38.5505 25.2996 37.0573 25.2389 36.8397C25.16 36.5595 25.1521 36.0006 24.9595 35.8195C24.7406 35.6134 24.6029 35.6687 24.2975 35.6999C24.2975 35.754 23.5615 36.0472 23.4031 36.0801C23.4031 36.1789 22.8691 36.2555 22.7677 36.2695C22.4924 36.3077 22.3105 36.4596 22.0858 36.4596C22.0858 36.6561 20.9088 36.5283 20.9088 36.7932C20.467 36.7932 20.1296 37.0047 19.7163 37.0459C19.212 37.0964 19.0309 37.3144 18.5242 37.3144C18.1086 37.3144 17.7173 37.4647 17.2362 37.4429C16.8114 37.4235 16.5103 37.2495 16.0926 37.3724C15.6351 37.5066 15.3259 37.3144 14.9314 37.3144C14.6429 37.2521 14.1379 37.4106 13.7078 37.4106C13.7078 37.5631 10.5572 37.0777 10.2717 37.0777C10.2717 36.9767 9.09531 36.8849 9.09531 36.698C8.49352 36.6209 8.16989 36.3694 7.4951 36.3178C7.20954 36.1896 6.84205 35.9372 6.52985 35.9372C6.43561 35.9372 6.12957 35.8857 6.12957 35.7944C5.97764 35.7944 5.23543 35.5822 5.23543 35.4153C4.87623 35.4153 4.52427 34.9396 4.15295 34.9396C4.15295 34.8906 3.53223 34.5121 3.4003 34.5121C3.21644 34.3107 2.84022 34.0407 2.74085 33.8474C2.5587 33.8474 2.29504 33.5155 2.17652 33.3723C2.05756 33.3723 1.80307 33.138 1.75263 33.0398C1.54345 32.8695 1.42323 32.7434 1.42323 32.5168C1.4062 32.5168 1.16958 32.1291 1.14042 32.0421C1.08106 32.0421 0.887624 31.6555 0.858469 31.567C0.733132 31.1873 0.627374 30.762 0.566727 30.4065C0.530342 30.1918 0.466078 29.9813 0.407347 29.7719C0.385216 29.6917 0.245836 29.4765 0.242644 29.449C0.231579 29.3563 0.17987 28.4316 0.152419 28.4316C0.152419 27.8743 -0.0482454 22.5406 0.0109113 22.5406C0.0109113 22.3915 0.100072 21.448 0.246474 21.448C0.246474 21.3736 0.482037 20.3465 0.513318 19.9756C0.526937 19.8102 0.716964 18.6923 0.905498 18.6923C0.905498 18.31 1.32023 17.9727 1.42323 17.5529C1.77199 17.375 1.8286 16.8016 2.12949 16.6495C2.12949 16.3941 2.55253 16.2942 2.55253 16.0322C2.78979 15.8726 2.81043 15.5698 3.02365 15.4619C3.02365 15.3019 3.30581 15.2214 3.30581 15.0343C3.55585 14.818 3.72311 14.6307 3.91781 14.3698C4.09911 14.2778 4.13571 14.0122 4.34148 13.9415C4.39894 13.7658 4.48321 13.7222 4.62407 13.6092C4.62407 13.5257 4.70281 13.3871 4.76516 13.3242C4.9173 13.1713 5.52315 12.1367 5.65934 12.1367C5.73658 11.8214 5.92681 11.5325 6.19281 11.2973C6.32704 11.1781 6.43561 10.8536 6.64752 10.8536C6.7014 10.7443 6.78883 10.7891 6.78883 10.7112C6.95116 10.7112 6.88056 10.5939 7.02394 10.5215C7.02394 10.3424 7.45893 9.95172 7.63597 9.95172C7.78682 9.74894 7.92241 9.68515 8.14052 9.55649C8.48775 9.35178 9.89773 7.61098 10.2246 7.52894C10.2848 7.40825 10.5353 7.33886 10.6483 7.33886C10.6483 7.30213 11.1145 7.00593 11.2133 7.00593C11.2792 6.87276 13.0652 5.45201 13.5195 4.91547C13.6584 4.91547 13.9104 4.70175 13.99 4.5832C14.1783 4.5209 14.2413 4.4017 14.3664 4.25049C14.4705 4.25049 14.6062 4.14954 14.6727 4.06019C14.7729 3.92509 14.9005 3.82436 15.0254 3.71203C15.1876 3.56726 15.104 3.55439 15.2138 3.44271C15.4457 3.20859 15.8285 3.15427 16.0611 2.92075C16.1837 2.79725 16.3161 2.44502 16.5316 2.44502C16.7297 2.20446 16.8927 2.05518 17.1436 1.97034C17.383 1.60739 17.9029 1.58308 18.1318 1.35287C18.2185 1.26478 18.5312 1.01994 18.6493 1.01994C18.7249 0.867905 19.0694 0.773987 19.2615 0.735332C19.2615 0.632236 19.732 0.611839 19.732 0.49736C19.8352 0.472233 20.1559 0.380962 20.1559 0.307281C20.479 0.199455 20.63 0.165092 21.0033 0.165092C21.0033 0.0403328 21.6657 0.0297737 21.8083 0.0327988C22.237 0.0437393 22.6662 0.0538597 23.0948 0.064579C23.3348 0.0706291 23.5208 -0.0260353 23.8104 0.0109138C24.3648 0.0823936 24.7308 0.307281 25.2232 0.307281C25.3151 0.307281 25.7566 0.388496 25.7566 0.450134C25.9971 0.509846 26.3408 0.591442 26.5755 0.745014C27.2269 1.16966 27.6963 1.64494 28.2666 2.19204C28.6202 2.53096 29.0366 2.96375 29.1454 3.39543C29.3535 3.50111 29.5399 4.25049 29.6157 4.25049C29.6157 4.77328 29.8476 5.29195 29.8985 5.86544C30.074 5.86544 30.3222 6.82338 30.3222 6.95847C30.4017 6.95847 30.4162 7.90844 30.6046 7.90844C30.6046 8.21839 30.7041 8.3945 30.6654 8.71022C30.6273 9.01737 30.4635 9.31357 30.4635 9.61879C30.4141 9.61879 30.2751 9.92165 30.2751 9.99873C30.0466 10.1734 29.8876 10.3967 29.6765 10.5896C29.4576 10.7898 28.2983 10.9762 28.2983 11.1394C27.8878 11.1394 27.5607 11.3418 27.0909 11.3027C26.8691 11.2838 26.63 11.2511 26.4227 11.1657C26.2378 11.0901 26.1903 10.8828 26.0392 10.8065C26.0392 10.5799 25.7098 10.508 25.7098 10.2836C25.5545 10.2071 25.4273 9.86644 25.4273 9.71435C25.2425 9.71435 25.2181 8.89283 24.9566 8.76373C24.9566 8.6995 24.601 7.90844 24.5329 7.90844C24.5329 7.60306 24.0251 7.1799 23.8036 6.91103C23.6266 6.69664 23.3165 6.73749 23.2155 6.5313C22.9112 6.47005 22.6875 6.35601 22.509 6.62577C22.3494 6.62577 22.179 6.80661 22.0151 6.83927C21.7529 6.89211 21.6031 7.12453 21.3556 7.19601C21.2752 7.21965 20.9088 7.41831 20.9088 7.43338C20.7428 7.43338 20.5998 7.55302 20.3908 7.62324C20.3908 7.75234 19.8895 7.84466 19.7793 7.95633C19.5871 8.14966 19.306 8.25171 19.0732 8.38356C18.9147 8.38356 18.6478 8.62324 18.5555 8.76373C18.2767 8.83312 18.1225 9.04855 17.8497 9.04855C17.8497 9.08825 17.4988 9.23863 17.4262 9.23863C17.2577 9.42546 16.8999 9.67999 16.814 9.8561C16.2552 10.044 15.7579 10.5492 15.4016 10.9966C15.0931 11.074 14.8848 11.339 14.6584 11.5855C14.4201 11.845 14.1868 12.0029 13.9432 12.2789C13.7806 12.4636 13.5555 12.8018 13.3312 12.8018C13.1663 13.001 12.5779 13.4192 12.5779 13.6567C12.3868 13.8071 12.0602 13.9982 12.0602 14.2269C11.9106 14.3612 11.5856 14.7972 11.4014 14.7972C11.3477 14.9068 11.2605 14.8621 11.2605 14.94C11.0883 15.0549 11.1426 15.1879 10.9777 15.2723C10.9777 15.5307 10.6996 15.5833 10.5776 15.7476C10.41 15.9721 9.94246 16.2431 9.94246 16.5073C9.88117 16.5073 9.78328 16.8059 9.70669 16.8634C9.52474 17.0009 9.34557 17.2962 9.28363 17.5529C9.0757 17.7096 8.83487 18.2176 8.57758 18.2176Z" fill="white"/>
<path fill-rule="evenodd" clip-rule="evenodd" d="M76.3068 14.4647C76.2523 14.6661 76.0132 14.8959 75.8356 14.9873C75.7266 15.3169 75.634 15.4688 75.6003 15.842C75.4238 16.4531 75.22 17.0457 75.7887 17.5049C75.7887 17.6065 76.1608 17.7491 76.2752 17.7579C76.6119 17.7848 76.8063 17.8374 77.1539 17.8374C77.1539 17.9061 78.8949 17.8582 78.8949 17.7422C78.9788 17.7422 79.3656 17.6559 79.3656 17.6001C79.6957 17.5517 79.8978 17.5049 80.2601 17.5049C80.3625 17.5049 81.3893 17.4175 81.3893 17.3149C81.7712 17.2693 83.0835 17.0292 83.272 16.9826C83.4556 16.6151 84.2172 16.5545 84.6214 16.5545C85.0877 16.5545 85.5491 16.4198 86.0241 16.431C86.3406 16.4392 86.9905 16.6082 86.9905 16.9826C87.1523 17.091 87.3043 17.3149 87.3669 17.5049C87.4503 17.7569 87.6071 17.8986 87.6965 18.1703C87.745 18.1703 88.1268 19.067 88.1437 19.168C88.2167 19.6083 88.4417 19.7262 88.4809 20.244C88.5027 20.5308 88.6002 20.6811 88.6378 21.0205C88.6525 21.0205 88.8405 22.0192 88.8731 22.1604C89.0044 22.1604 89.2725 23.3713 89.2779 23.6073C89.2872 24.0135 88.8977 24.3458 88.591 24.3458C88.4145 24.6127 88.104 24.6213 87.7907 24.6783C87.7907 24.7283 87.4824 24.8737 87.3903 24.8919C87.1234 24.9457 86.8031 24.9907 86.473 25.0111C86.1243 25.1153 85.7419 25.2485 85.3786 25.2485C84.7603 25.2485 84.2313 25.3913 83.6724 25.3913C83.4294 25.3913 83.1118 25.3934 82.8013 25.3617C82.5072 25.3329 82.2359 25.4386 81.86 25.4386C81.6525 25.4386 79.9773 25.5187 79.9773 25.5814C79.3182 25.6287 79.0159 25.8188 78.4248 25.8188C78.4248 25.9003 77.4671 26.0733 77.2944 26.0876C77.0379 26.1087 76.7704 26.1989 76.5182 26.1989C76.1864 26.1989 75.8209 26.1875 75.4902 26.2225C75.293 26.243 75.1563 26.3407 74.9411 26.3407C74.6622 26.3407 74.4868 26.4362 74.2825 26.4362C74.2825 26.5791 73.8587 26.5071 73.8587 26.6736C73.6849 26.6736 73.4741 26.8211 73.3412 26.9586C73.3412 27.1139 73.0508 27.4393 72.9173 27.5288C72.743 27.7297 72.8231 27.9526 72.7615 28.1835C72.5965 28.8085 72.7964 29.0287 73.1527 29.4765C73.3226 29.4765 73.4904 29.7139 73.6702 29.7139C73.6702 29.7535 74.0216 29.9039 74.094 29.9039C74.094 30.0596 74.8932 30.2841 75.1296 30.332C75.1296 30.4398 76.4473 30.4456 76.4473 30.6643C76.6903 30.6643 76.8494 30.7592 77.1539 30.7592C77.1539 31.0283 77.9274 30.7491 78.0478 30.7115C78.5288 30.6847 78.9777 30.5691 79.3656 30.5691C79.3656 30.4563 80.0503 30.3496 80.2127 30.332C80.2127 30.1602 80.8903 29.8974 81.0129 29.7139C81.1709 29.7139 81.2771 29.571 81.4602 29.571C81.689 29.571 81.8497 29.5227 82.0327 29.5399C82.3105 29.5656 82.3492 29.5968 82.5584 29.7525C82.645 29.8169 82.8956 30.06 82.8956 30.094C83.0944 30.2738 83.6697 31.2049 83.8135 31.329C84.0058 31.4948 84.6007 32.5629 84.6372 33.0398C84.6214 33.0398 84.8425 34.0578 84.8502 34.206C84.8551 34.3085 84.7875 34.6543 84.7314 34.6543C84.7314 34.8734 84.684 35.1371 84.684 35.4152C84.6061 35.4152 84.5435 36.3184 84.5435 36.4595C84.4508 36.4595 84.3081 37.4052 84.3081 37.5523C84.0739 37.6694 84.2101 37.9572 83.9785 38.0747C83.9785 38.6224 82.7441 39.4102 82.7441 39.1943C83.3597 39.1943 79.3656 40.3976 79.3656 40.1656C79.1106 40.2457 78.8486 40.0986 78.6127 40.0234C78.293 39.9912 78.1001 39.9235 77.7967 39.896C77.3898 39.8591 76.9017 39.5477 76.4947 39.5477C76.4947 39.5294 75.6487 39.2953 75.5534 39.2631C75.1743 39.1353 74.8262 38.9306 74.4236 38.9306C74.4236 38.7964 74.0472 38.8776 74.0472 38.7401C73.7388 38.689 73.4948 38.6031 73.1527 38.5505C73.1527 38.274 71.9292 38.4394 71.9292 38.1226C71.8208 38.1226 70.9884 37.8019 70.9884 37.6952C70.7737 37.6404 70.5422 37.4961 70.4229 37.3144C70.1756 37.3144 70.059 36.9349 69.8112 36.9349C69.7589 36.8307 69.4031 36.6026 69.2937 36.6026C69.2114 36.4795 68.915 36.2229 68.7756 36.2229C68.6263 36.0418 68.5403 35.9898 68.5403 35.7471C68.5125 35.7471 68.4433 35.571 68.3518 35.5098C68.3518 35.4915 67.9388 35.3427 67.8816 35.2245C67.7629 35.1253 67.5995 35.0576 67.5995 34.8922C67.4475 34.8149 67.563 34.7778 67.411 34.7022C67.411 34.4402 66.9872 34.3413 66.9872 34.084C66.8684 34.0256 66.8003 33.8542 66.7753 33.7281C66.7235 33.4665 66.705 33.7743 66.705 33.4193C66.6946 33.4193 66.5634 33.1525 66.5634 33.087C66.3411 32.9704 66.255 32.1849 66.1401 32.1849C66.1401 31.8123 65.8573 31.4095 65.8573 31.0444C65.6792 31.0444 65.8497 29.2392 65.622 29.2392C65.622 28.9793 65.5283 28.8949 65.5283 28.5737C65.4406 28.5737 65.4809 27.551 65.4809 27.3985C65.4809 27.2121 65.6945 26.1033 65.622 26.1033C65.622 25.7715 65.6694 25.3928 65.6694 25.1297C65.6694 24.931 65.811 24.8082 65.811 24.5837C65.811 23.6391 66.2419 22.9757 66.4065 22.1449C66.4996 21.6767 66.7992 21.3684 66.7992 20.8776C66.9087 20.8223 67.0346 20.5683 67.0346 20.4502C67.0787 20.4502 67.2225 20.1721 67.2225 20.0699C67.3157 20.0232 67.3903 19.7376 67.4578 19.7376C67.4578 19.6553 67.6638 19.2152 67.7406 19.2152C67.8637 18.7244 68.1284 18.4324 68.2107 17.9325C68.3425 17.9325 68.3311 16.8395 68.4929 16.8395C68.6639 16.2673 68.2815 15.6707 67.8816 15.3672C67.8816 15.2965 67.7999 15.0822 67.7406 15.0822C67.7406 14.8036 67.4965 14.8728 67.4104 14.6575C67.3216 14.4339 66.9872 14.2312 66.9872 14.0368C66.8831 14.0368 66.9398 13.7361 66.9398 13.6566C66.7458 13.4999 66.6451 13.3665 66.5165 13.1498C66.2681 12.7322 66.3286 11.9023 66.3286 11.4873C66.3286 10.9933 66.2441 10.5154 66.3438 9.957C66.3983 9.65096 66.4223 9.30835 66.4223 9.04849C66.4408 9.04849 66.705 8.51299 66.705 8.43096C66.9044 8.29718 67.0787 7.7662 67.3636 7.7662C67.423 7.64699 67.5799 7.55725 67.6932 7.48055C67.6932 7.32484 67.8817 7.24368 67.9884 7.13409C68.275 6.84158 68.5735 6.57523 68.9641 6.43563C69.353 6.29712 69.7959 6.39378 70.1985 6.37333C70.8097 6.34331 71.1425 5.90921 71.6938 5.72363C72.2718 5.52816 72.5377 5.34496 73.2943 5.24791C73.2943 5.17055 73.7819 5.05761 73.8903 5.05761C74.2623 5.05761 74.3626 5.06426 74.7771 5.09346C75.0446 5.11303 75.1846 4.97189 75.4276 4.94698C75.7686 4.91261 78.7244 4.20298 78.8007 4.20298C78.8007 4.01334 80.0503 3.84581 80.2601 3.77554C80.5134 3.69009 80.5308 3.63274 80.8718 3.63274C81.1001 3.63274 81.2847 3.538 81.5075 3.538C81.8633 3.538 82.6167 3.24438 82.7076 3.22871C82.9403 3.19028 83.01 3.10648 83.3194 3.09125C83.7133 3.07151 83.9241 3.00597 84.2918 2.92009C84.3735 2.90139 84.8725 2.75106 84.8725 2.73C85.3933 2.73 85.7909 2.58781 86.285 2.58781C86.285 2.66622 87.7945 2.49137 88.0277 2.46646C88.1977 2.44821 89.3907 2.34726 89.3907 2.58781C89.681 2.66084 89.7524 2.89386 90.0498 2.96798C90.2388 3.20529 90.3914 3.48346 90.6142 3.63274C90.6725 3.86725 90.8942 4.1701 91.0854 4.29789C91.0854 4.37585 91.2946 4.72594 91.3676 4.72594C91.3921 4.82585 91.5452 5.15317 91.6029 5.15317C91.6661 5.45729 91.8382 5.90492 91.8382 6.15103C92.0496 6.15103 92.1825 7.00587 92.3563 7.00587C92.4206 7.28079 92.5916 7.68889 92.5916 7.90839C92.6559 7.90839 92.8553 8.35579 92.8744 8.43096C93.0879 8.54159 93.0525 8.8627 93.0389 9.07252C93.0236 9.30087 93.0694 9.39 92.8744 9.52421C92.797 9.75339 92.6859 9.61873 92.6859 9.87215C92.6859 10.2579 92.5895 10.3322 92.2615 10.5449C92.0147 10.7055 91.726 10.8535 91.5087 10.8535C91.5087 10.9927 90.7231 11.0668 90.5439 11.0797C90.2329 11.1018 90.0444 11.2818 89.6968 11.2818C89.5301 11.2818 88.3082 11.497 88.3082 11.5189C87.9945 11.5189 87.7036 11.7569 87.3359 11.7569C86.9867 11.7569 86.7688 11.899 86.4964 11.899C86.0862 11.899 85.6052 12.0415 85.2021 12.0415C84.8028 12.0415 84.5898 12.1843 84.2291 12.1843C83.8037 12.1843 83.6277 12.3744 83.2726 12.3744C82.9985 12.3744 82.8095 12.5645 82.566 12.5645C82.566 12.8109 81.6906 12.8282 81.4749 12.8401C81.3256 12.848 80.5428 12.9906 80.5428 13.0864C80.18 13.0864 80.0394 13.2769 79.6952 13.2769C79.6952 13.4257 79.1776 13.3847 79.1776 13.5143C79.0681 13.5222 78.5185 13.5149 78.5185 13.6092C78.3736 13.6092 78.3066 13.7044 78.1421 13.7044C78.1421 13.8536 77.3941 13.8805 77.2007 13.894C77.2007 13.946 76.4637 14.4192 76.3068 14.4647Z" fill="white"/>
<path fill-rule="evenodd" clip-rule="evenodd" d="M98.5216 27.1964C98.4284 27.539 98.0923 27.5954 97.9703 27.8779C97.8341 28.1926 97.8101 28.6135 97.8592 28.9491C97.9136 29.3255 98.2192 29.4319 98.3805 29.762C98.539 29.8153 99.2276 30.0601 99.2276 30.1424C99.348 30.1424 100.122 30.2689 100.122 30.3795C100.417 30.3795 100.819 30.5696 101.063 30.5696C101.063 30.8527 103.887 30.8391 103.887 30.6647C103.945 30.6615 104.242 30.7292 104.358 30.7356C104.434 30.7392 104.781 30.8183 104.781 30.712C105.056 30.712 104.805 30.6647 105.017 30.6647C105.017 30.4472 105.956 30.4274 106.146 30.4274C106.146 30.2309 106.88 30.3243 106.994 30.0945C107.152 30.0945 107.412 29.8009 107.511 29.667C107.733 29.667 107.805 29.3342 108.029 29.3342C108.084 29.2246 108.396 29.0496 108.499 29.0496C108.499 29.0448 108.935 28.9018 109.026 28.8852C109.526 28.7939 109.621 29.2364 110.053 29.3818C110.053 29.4942 110.154 29.6885 110.235 29.8114C110.364 30.0086 110.555 30.1331 110.719 30.2974C110.852 30.43 110.853 30.4699 110.853 30.6647C110.853 30.9289 110.965 30.8627 111.041 31.0921C111.108 31.293 111.29 31.4637 111.303 31.6355C111.316 31.808 111.7 32.2413 111.7 32.5172C112.004 32.6708 112.077 34.1221 112.077 34.418C112.144 34.8175 112 35.0871 111.959 35.4157C111.921 35.7196 111.862 36.0515 111.841 36.413C111.813 36.413 111.686 36.8172 111.669 36.9042C111.595 37.2811 111.401 37.8417 110.994 37.9813C110.831 38.4667 110.374 38.61 109.893 38.712C109.752 38.7421 108.876 38.98 108.876 39.1207C108.623 39.1841 108.434 39.299 108.126 39.3145C107.795 39.3323 105.411 39.6835 105.135 39.7146C104.797 39.7522 103.359 40.106 103.181 39.8804C103.023 39.8804 103.104 39.7859 102.946 39.7859C102.946 39.6942 102.478 39.7683 102.381 39.7741C102.123 39.7902 102.036 39.8477 101.742 39.7157C101.484 39.6012 101.402 39.5954 101.137 39.6803C100.86 39.7694 100.188 39.541 100.075 39.3108C99.9189 39.3108 99.8018 39.2077 99.5724 39.1841C99.348 39.1622 99.1197 39.0868 98.898 39.0499C98.8212 39.0369 98.4279 38.8355 98.4279 38.7878C98.2579 38.7781 97.4392 38.7738 97.4392 38.6454C97.2474 38.6181 96.4036 38.4323 96.4036 38.3131C96.1541 38.2547 95.7542 38.238 95.6502 38.0286C95.4481 38.0286 95.2798 37.6215 95.0384 37.5528C94.9829 37.3208 94.8037 37.3165 94.8037 37.0781C94.747 37.0781 94.662 36.7775 94.662 36.6984C94.6429 36.6984 94.3335 36.3043 94.2387 36.2233C94.2387 36.0154 94.0503 35.8732 94.0503 35.653C93.8253 35.653 93.664 34.7026 93.4853 34.7026C93.4358 34.5033 93.2887 34.2667 93.1558 34.1324C93.013 33.9878 92.544 33.8847 92.544 33.6098C92.4378 33.5289 92.3561 33.5132 92.3561 33.3727C92.1709 33.2479 92.2869 33.1713 92.1202 33.0875C92.1202 33.0063 91.9366 32.7073 91.8849 32.7073C91.8849 32.5445 91.5918 31.4723 91.5084 31.4723C91.5084 31.3353 91.3368 29.9993 91.32 29.9993C91.2088 29.6316 91.2099 29.1022 91.2628 28.7235C91.3358 28.2005 91.4164 27.7233 91.4382 27.1491C91.4698 26.3078 91.8162 25.5636 91.8849 24.7264C91.9039 24.4977 92.0091 23.5865 92.1676 23.5865C92.1676 23.3943 92.3065 22.3509 92.4498 22.3509C92.4498 22.1561 92.4972 21.8537 92.4972 21.5912C92.5446 21.5912 92.6383 21.1982 92.6383 21.1155C92.6906 21.1155 92.8741 20.062 92.8741 19.9127C92.8741 19.7188 92.9613 18.5031 93.1084 18.5031C93.153 18.3272 93.4309 17.3632 93.4853 17.3632C93.4853 16.954 93.8618 16.552 94.0034 16.1276C94.0819 16.1276 94.1772 15.587 94.333 15.5101C94.333 15.312 94.4839 15.1615 94.5215 14.9404C94.6321 14.9404 94.7219 14.4819 94.8505 14.4174C94.8505 14.2467 95.0646 14.0055 95.1327 13.8C95.1975 13.8 95.5091 12.8485 95.5091 12.7544C95.5429 12.7544 95.7913 12.1268 95.7913 12.0419C95.8877 12.0419 96.2156 10.837 96.2156 10.7116C96.2745 10.7116 96.3426 9.15525 96.336 8.96088C96.3251 8.61938 96.3251 8.30261 96.3802 8.02769C96.4118 7.86763 96.4973 7.9175 96.4973 7.76668C96.6427 7.64967 96.6771 7.53794 96.7806 7.4338C96.932 7.28001 97.1423 7.21364 97.2981 7.02999C97.4637 6.83496 97.6827 6.70223 97.9093 6.62619C98.2454 6.51342 99.5566 5.91848 99.5566 5.86586C99.8617 5.86586 99.5196 5.81863 99.8867 5.81863C99.8867 5.67254 100.053 5.82831 100.122 5.81863C100.122 5.72219 100.592 5.74539 100.592 5.58126C100.71 5.58126 101.299 5.48031 101.299 5.39118C101.801 5.39118 102.353 5.23657 102.875 5.17751C103.188 5.14205 103.295 5.06045 103.652 5.09053C103.938 5.11412 104.199 4.9799 104.546 4.9159C104.546 4.77563 105.817 4.88863 105.817 4.67814C106.024 4.67814 107.182 4.61689 107.182 4.44078C107.671 4.37012 108.215 4.31514 108.688 4.15618C108.773 4.1272 109.017 4.01915 109.017 3.96609C109.162 3.94784 109.723 3.87163 109.723 3.77602C109.923 3.77602 111.135 3.84584 111.135 3.58593C111.353 3.58593 111.452 3.49081 111.747 3.49081C111.747 3.47316 112.286 3.34862 112.359 3.34862C112.597 3.34862 112.746 3.25306 113.041 3.25306C113.391 3.25306 113.704 3.18537 114.044 3.10311C114.28 3.04686 116.219 3.12461 116.219 3.20577C116.61 3.20577 116.908 3.49081 117.349 3.49081C117.349 3.60677 117.442 3.46975 117.442 3.58593C117.655 3.58593 117.747 3.72339 117.906 3.85767C118.057 3.98375 118.675 4.63086 118.761 4.63086C118.896 5.19016 119.098 5.8083 119.607 6.15151C119.607 6.25681 119.764 6.4995 119.843 6.57896C119.928 6.66528 119.947 6.79741 119.984 6.91189C120.076 6.95697 120.173 7.09273 120.173 7.19643C120.209 7.19643 120.6 7.98579 120.616 8.07811C120.725 8.69025 120.397 10.313 120.031 10.6169C119.867 10.7135 119.712 10.7973 119.517 10.8166C118.909 10.8765 118.454 11.0114 117.772 10.9255C117.47 10.8875 115.361 11.3299 115.207 11.3299C115.001 11.3299 114.735 11.4245 114.524 11.4245C114.524 11.4764 114.215 11.5673 114.148 11.5673C114.148 11.6865 113.578 11.6622 113.442 11.6622C113.442 11.5821 112.982 11.7574 112.853 11.7574C111.692 11.7574 110.625 11.9945 109.488 11.9945C108.878 11.9945 106.523 12.3373 106.523 12.4221C106.415 12.4221 106.005 12.5714 106.005 12.6599C105.809 12.6599 105.701 12.7683 105.456 12.8184C105.24 12.8618 105.12 13.1352 104.922 13.1352C104.857 13.269 104.532 13.4675 104.405 13.4675C104.336 13.6032 104.238 13.5819 104.146 13.7048C104.033 13.8556 103.88 13.9428 103.746 14.132C103.589 14.2596 103.432 14.3857 103.275 14.5124C103.209 14.7214 103.143 14.9308 103.077 15.1391C102.989 15.4237 102.864 15.8168 102.616 15.9854C102.616 16.0992 102.386 16.4094 102.287 16.4837C101.98 16.7161 102.052 17.0457 102.052 17.3153C102.339 17.4592 102.386 17.7176 102.748 17.7565C103.061 17.7906 103.227 17.6955 103.51 17.6955C103.51 17.6005 104.922 17.6358 104.922 17.4577C105.202 17.4577 107.37 17.1128 107.37 16.9831C107.789 16.9831 108.188 16.7994 108.594 16.6978C108.594 16.5556 109.394 16.4482 109.394 16.3176C109.696 16.2893 109.987 16.3215 110.147 16.0803C110.25 16.0803 110.575 15.8816 110.618 15.7953C110.751 15.7502 111.465 15.5816 111.465 15.4624C111.612 15.4624 111.868 15.2856 112.088 15.2669C112.296 15.2491 112.399 15.3677 112.594 15.3677C112.594 15.384 112.947 15.6052 113.018 15.6052C113.094 15.7609 113.252 15.7512 113.411 15.7953C113.653 15.8619 113.521 15.8404 113.701 15.9854C113.854 16.1091 113.872 16.2281 114.03 16.3655C114.136 16.4568 114.336 16.6589 114.336 16.793C114.61 16.977 114.948 17.6747 114.948 17.9807C115.186 17.9807 115.341 18.9305 115.466 18.9305C115.466 19.0654 115.561 19.2881 115.701 19.3581C115.701 19.424 115.867 19.786 115.889 19.786C115.889 20.0147 115.983 20.2317 115.983 20.4507C115.983 20.7074 115.983 20.9112 115.983 21.211C115.774 21.211 116.074 22.6834 115.889 22.6834C115.889 22.9175 115.68 23.4044 115.419 23.5386C115.419 23.8604 114.714 24.0612 114.477 24.0612C114.477 24.1937 114.1 24.1138 114.1 24.2513C113.789 24.3301 113.577 24.4414 113.23 24.465C112.722 24.4994 112.533 24.7844 112.029 24.8688C112.029 24.8881 111.482 24.9923 111.371 25.0116C111.371 25.1588 110.947 25.1512 110.947 25.249C110.555 25.2808 109.432 25.4863 109.347 25.4863C109.347 25.6736 105.473 26.0565 105.299 26.0565C105.299 26.136 104.924 26.1994 104.829 26.1994C104.829 26.1972 103.229 26.4485 103.229 26.2466C103.144 26.2466 103.097 26.3476 102.954 26.3734C102.773 26.4049 102.593 26.4367 102.413 26.4683C102.017 26.5377 101.651 26.508 101.251 26.484C101.251 26.6618 100.027 26.6311 100.027 26.8169C99.7963 26.8169 99.647 26.9114 99.4161 26.9114C99.2276 26.9114 99.0391 26.9114 98.8506 26.9114C98.8506 27.0242 98.6218 27.1681 98.5216 27.1964Z" fill="white"/>
<path fill-rule="evenodd" clip-rule="evenodd" d="M169.968 13.2293C169.968 13.294 169.565 13.5625 169.498 13.5625C169.421 13.7225 169.058 13.8986 168.886 13.9418C168.839 14.0371 168.616 14.18 168.509 14.18C168.443 14.3129 168.272 14.37 168.133 14.37C168.133 14.4366 167.661 14.6312 167.568 14.6546C167.374 14.9532 166.972 15.0563 166.627 15.1658C166.244 15.2861 165.903 15.4622 165.497 15.4622C165.497 15.6223 164.83 15.6096 164.706 15.6115C164.376 15.6147 164.125 15.6126 163.85 15.415C163.758 15.2768 163.71 15.3069 163.71 15.1777C163.524 15.052 163.64 14.9772 163.474 14.8924C163.443 14.718 163.361 13.9418 163.238 13.9418C163.238 13.7708 163.064 12.7065 162.956 12.7065C162.956 12.5932 162.922 12.0418 162.861 12.0418C162.873 11.8281 162.886 11.6142 162.897 11.4007C162.909 11.1773 162.813 11.0759 162.818 10.8238C162.824 10.4621 162.845 10.0516 163.257 9.97667C163.619 9.91009 163.953 9.90404 164.321 9.90404C164.598 9.85637 164.696 9.90404 164.979 9.90404C164.979 10.0173 165.497 9.98096 165.497 10.0941C165.848 10.0941 166.06 10.1421 166.391 10.1421C166.611 10.1421 166.796 10.2365 167.004 10.2365C167.276 10.2365 167.656 10.3128 167.992 10.3317C167.992 10.3347 168.461 10.4876 168.533 10.4979C168.885 10.5488 169.142 10.7595 169.452 10.7595C169.452 10.9969 170.412 10.9737 170.617 11.2954C170.704 11.4318 170.883 12.137 170.627 12.137C170.486 12.5702 170.366 12.9009 169.968 13.2293ZM207.151 5.96127C207.429 5.96127 207.715 8.2412 207.575 8.2412C207.575 8.32714 207.588 9.21524 207.568 9.52453C207.547 9.85059 207.476 10.199 207.293 10.4739C207.198 10.551 206.728 10.9174 206.728 10.9015C206.615 10.9015 205.928 11.2987 205.928 11.3298C205.5 11.3298 205.082 11.6142 204.61 11.6142C204.61 11.6315 203.332 11.7594 203.169 11.8141C202.428 12.0637 201.668 12.1569 200.938 12.2319C200.938 12.417 199.761 12.3021 199.761 12.4697C199.278 12.4697 198.822 12.743 198.232 12.7783C198.026 12.7903 196.985 12.9503 196.985 13.0867C196.691 13.1071 196.372 13.1823 196.138 13.1823C196.138 13.2832 195.622 13.338 195.479 13.3488C194.932 13.3874 194.675 13.5614 194.067 13.6569C194.067 13.7483 193.079 13.9418 192.937 13.9418C192.937 14.1553 191.565 14.2599 191.304 14.2947C191.074 14.326 190.896 14.5122 190.678 14.5122C190.678 14.6213 190.066 14.6546 189.926 14.6546C189.926 14.7334 188.842 14.8613 188.842 15.0346C188.749 15.0346 188.372 15.1024 188.372 15.1777C188.181 15.1777 188.099 15.415 187.901 15.415C187.792 15.6388 187.477 15.75 187.477 15.9852C187.315 16.0937 187.164 16.3181 187.101 16.5076C187.071 16.5978 186.907 16.8873 186.866 16.8873C186.798 17.0924 186.733 17.0377 186.678 17.2674C186.585 17.3145 186.442 17.4887 186.442 17.6004C186.309 17.6897 186.018 18.0149 186.018 18.1706C185.886 18.2372 185.787 18.6925 185.736 18.6925C185.752 18.8669 185.768 19.0416 185.783 19.2155C185.925 19.2628 186.066 19.3105 186.206 19.358C186.37 19.5635 186.556 19.7379 186.771 19.7379C186.771 19.9544 188.126 19.7353 188.341 19.7396C189.068 19.7536 189.74 19.6922 190.448 19.5339C190.798 19.4554 191.118 19.4529 191.479 19.4529C191.479 19.3337 192.048 19.358 192.184 19.358C192.184 19.2993 193.643 19.2725 193.643 19.0727C193.791 19.0502 194.396 18.9956 194.396 18.8826C194.664 18.8148 194.922 18.6453 195.197 18.6453C195.197 18.6137 196.003 18.2168 196.162 18.1943C196.328 18.17 196.582 18.0815 196.656 17.9329C196.742 17.9329 196.967 17.8087 197.032 17.7432C197.148 17.6266 197.375 17.5027 197.55 17.4575C197.647 17.3108 198.115 17.1343 198.115 17.0301C198.558 17.0301 198.877 17.1977 199.282 17.3721C199.499 17.4662 199.95 17.7518 199.95 18.0278C200.099 18.0278 200.131 18.5979 200.279 18.5979C200.426 19.0416 200.607 19.4035 200.704 19.7858C200.765 19.7858 201.033 20.6477 201.056 20.7835C201.073 20.8844 201.404 21.7332 201.41 21.7332C201.41 21.8984 201.605 23.5864 201.41 23.5864C201.41 23.7271 201.232 24.2511 201.126 24.2511C201.126 24.3248 200.978 24.6786 200.938 24.6786C200.938 24.8912 200.817 25.0963 200.656 25.3122C200.55 25.4539 199.903 25.7364 199.903 25.8191C199.844 25.8191 199.48 26.0205 199.48 26.0564C199.257 26.0564 199.114 26.1992 198.891 26.1992C198.817 26.1992 198.302 26.3195 198.302 26.3887C197.953 26.3887 197.641 26.4372 197.295 26.4773C196.509 26.5687 194.274 26.9858 193.892 26.9724C193.476 26.9585 186.089 28.099 185.512 28.099C184.864 28.099 184.513 28.2461 183.816 28.2794C183.382 28.3002 183.11 28.5554 182.725 28.6854C182.561 28.7401 182.381 28.7455 182.3 28.9066C182.134 28.9066 182.184 29.0494 182.018 29.0494C181.866 29.2277 181.709 29.4758 181.547 29.6197C181.515 29.9053 181.547 30.104 181.547 30.3793C181.641 30.3793 181.901 30.9331 182.018 31.0211C182.148 31.1188 182.344 31.3261 182.441 31.4721C182.645 31.4721 182.938 31.6788 183.053 31.8523C183.192 31.8523 183.49 32.1094 183.571 32.2325C183.775 32.2325 183.823 32.4225 184.041 32.4225C184.041 32.5332 185.233 32.6578 185.457 32.6706C186.172 32.7125 186.905 32.5826 187.587 32.3682C187.709 32.3291 188.372 32.2765 188.372 32.1852C188.467 32.161 188.89 32.0349 188.89 31.9468C189.182 31.8759 189.22 31.7574 189.548 31.7095C189.548 31.5892 189.972 31.6397 189.972 31.5198C190.058 31.5198 190.396 31.4425 190.396 31.377C190.733 31.3394 190.86 31.3529 191.055 31.092C191.352 31.092 191.631 30.7595 191.948 30.7595C191.948 30.7397 192.727 30.4272 192.843 30.4272C192.843 30.3542 193.985 30.1727 194.161 30.1577C194.519 30.1276 194.813 30.5443 195.079 30.7595C195.237 30.8873 195.306 31.1489 195.479 31.2348C195.514 31.3776 195.665 31.9468 195.761 31.9468C195.859 32.3914 196.091 32.6303 196.091 32.9928C196.296 32.9928 196.232 34.7487 196.232 35.0347C196.394 35.0347 196.232 36.3793 196.232 36.4598C196.166 36.4598 196.122 37.3626 196.076 37.5054C195.989 37.7657 195.838 38.2045 195.62 38.313C195.62 38.569 195.039 38.9419 194.867 39.1442C194.766 39.2617 194.486 39.4535 194.349 39.4535C194.349 39.4911 194.081 39.5956 194.02 39.5956C193.935 39.7714 193.547 39.9292 193.36 39.9754C193.238 40.2213 192.589 40.4028 192.373 40.4028C192.373 40.5564 191.472 40.6455 191.337 40.9258C191.118 40.9258 190.689 41.1675 190.426 41.2587C190.023 41.3994 189.69 41.4016 189.266 41.4016C189.266 41.5261 188.89 41.3994 188.89 41.5438C188.601 41.6329 187.219 41.452 186.96 41.4407C186.58 41.4246 186.2 41.4145 185.82 41.3966C185.473 41.3805 185.139 41.2587 184.795 41.2587C184.667 41.2587 183.995 41.2759 183.995 41.1636C183.61 41.1636 183.247 40.9537 182.889 40.9022C182.685 40.8732 181.687 40.7534 181.687 40.594C181.524 40.594 181.39 40.4877 181.17 40.4512C181.17 40.414 180.807 40.2138 180.747 40.2138C180.652 40.0194 180.041 39.9797 180.041 39.8332C179.96 39.8332 179.524 39.5781 179.524 39.548C179.292 39.4911 179.046 39.3708 178.911 39.1689C178.675 39.1689 178.589 38.7877 178.347 38.7877C178.162 38.5647 177.795 38.3914 177.688 38.1702C177.237 38.1702 177.035 37.398 176.761 37.1575C176.542 36.9635 176.444 36.6173 176.229 36.5077C176.229 36.3649 176.131 36.3535 176.087 36.1752C175.915 36.0851 176.026 35.9299 175.853 35.843C175.802 35.6411 175.617 35.524 175.617 35.32C175.566 35.32 175.381 34.9774 175.381 34.8926C175.191 34.8926 175.005 33.4486 175.005 33.2538C175.005 32.8661 174.858 32.3194 174.781 31.8287C174.731 31.5108 174.7 31.1719 174.769 30.854C174.713 30.4058 174.695 29.9482 174.778 29.5004C174.844 29.1514 174.817 28.7874 174.817 28.4319C174.878 28.4319 174.91 27.8799 174.91 27.7665C174.99 27.7665 175.159 26.7222 175.17 26.5551C175.197 26.0779 175.475 25.6691 175.475 25.2488C175.443 25.2488 175.853 24.0879 175.853 24.0138C176.038 24.0138 176.06 23.0634 176.182 23.0634C176.182 22.9753 176.266 22.5408 176.323 22.5408C176.323 22.3318 176.334 22.0142 176.511 21.9233C176.556 21.6989 176.652 21.6426 176.652 21.4482C176.692 21.4482 176.841 21.0938 176.841 21.0208C177.021 21.0208 177.109 20.166 177.264 20.166C177.335 19.7282 177.465 19.5098 177.594 19.1204C177.647 18.9578 177.782 18.8025 177.782 18.6453C177.891 18.6453 177.992 17.6594 178.017 17.5053C177.842 17.5053 177.766 17.4928 177.688 17.7905C177.467 17.8433 177.313 18.0278 177.123 18.0278C177.123 18.0723 176.746 18.2254 176.652 18.2415C176.423 18.2802 172.451 21.4573 172.345 21.5431C172.161 21.692 172.088 21.7811 171.852 21.7811C171.852 21.8939 171.172 22.113 171.051 22.113C171.051 22.2472 170.581 22.1634 170.581 22.303C170.424 22.3191 170.267 22.3353 170.11 22.3508C170.068 22.4341 169.973 22.506 169.887 22.5505C169.76 22.6171 169.587 22.7874 169.498 22.921C169.452 22.921 168.981 23.1369 168.981 23.159C168.822 23.159 167.945 23.3727 167.945 23.4908C167.839 23.5063 167.286 23.6003 167.286 23.6809C167.095 23.7292 166.895 23.871 166.721 23.871C166.721 24.0127 166.015 24.0976 166.015 24.2511C165.413 24.4032 164.717 24.6206 164.04 24.7043C163.793 24.7355 163.769 24.8235 163.615 25.0115C163.508 25.0115 163.552 25.1844 163.426 25.2488C163.35 25.557 163.2 25.7067 163.175 26.0248C163.129 26.6223 163.029 27.0921 162.956 27.6716C162.779 27.6716 162.72 28.558 162.72 28.7637C162.664 28.7637 162.678 30.6167 162.484 30.6167C162.484 30.8046 162.385 31.8523 162.203 31.8523C162.203 32.0532 162.144 33.8476 162.109 33.8476C162.109 34.0306 161.897 35.5573 162.014 35.5573C162.076 35.7803 162.03 36.0631 161.987 36.2854C161.942 36.5099 161.967 36.657 161.967 36.9674C161.967 37.0651 161.684 38.9831 161.697 39.2247C161.71 39.4438 161.638 39.5731 161.638 39.7381C161.606 39.7381 161.476 39.9861 161.402 40.0473C161.237 40.1863 161.045 40.2804 160.932 40.4512C160.778 40.4512 160.619 40.6406 160.462 40.6406C160.462 40.7658 160.043 40.783 159.944 40.783C159.944 40.9177 158.525 40.9737 158.285 40.9737C158.031 40.9737 157.904 40.8726 157.637 40.783C157.637 40.7314 157.341 40.545 157.261 40.545C157.182 40.391 156.955 40.3326 156.837 40.2138C156.699 40.0746 156.429 40.1021 156.319 39.8802C156.093 39.8802 155.331 39.1184 155.331 38.8832C155.162 38.7984 155.183 37.7245 154.955 37.6482C154.923 37.4102 154.892 37.1725 154.86 36.9352C154.691 36.9352 154.942 34.9055 154.908 34.7976C154.794 34.4437 155.049 33.2821 155.049 32.9567C155.049 32.7297 154.949 32.574 154.971 32.3592C154.994 32.1126 155.096 32.0091 155.096 31.8287C155.096 31.5946 155.008 29.6669 155.237 29.6669C155.237 29.4332 155.331 29.3039 155.331 29.0015C155.364 29.0015 155.484 27.2899 155.425 27.0541C155.33 26.9961 154.672 26.6825 154.672 26.6739C154.478 26.6739 154.32 26.3887 154.107 26.3887C153.96 26.1675 153.689 26.0725 153.518 25.8663C153.382 25.7009 152.978 25.5248 152.978 25.2961C152.928 25.2961 152.722 24.8772 152.649 24.7741C152.457 24.7741 152.236 24.4771 152.178 24.2984C151.934 24.1753 151.753 23.6427 151.753 23.3957C151.742 23.3957 151.472 22.6106 151.472 22.5408C151.406 22.5408 152.084 18.9335 152.084 18.7882C152.207 18.7882 152.255 18.0278 152.413 18.0278C152.413 17.6874 153.104 17.2728 153.401 17.173C153.683 17.0774 153.841 17.0634 154.188 17.1021C154.329 17.1182 154.86 17.023 154.86 16.935C155.104 16.935 155.367 16.8072 155.613 16.7449C155.741 16.5945 155.844 16.4436 156.013 16.3411C156.177 16.2419 156.071 16.203 156.225 16.1274C156.309 15.8746 156.472 15.5879 156.583 15.3011C156.719 14.945 156.602 14.4564 156.615 14.0715C156.645 13.2349 156.692 12.4015 156.743 11.5672C156.764 11.5672 156.351 11.0596 156.319 10.9969C156.188 10.9776 155.708 10.8925 155.708 10.8068C155.448 10.8068 155.32 10.7467 155.015 10.8702C154.712 10.9926 154.384 10.9646 154.06 10.9765C153.921 10.9812 153.308 10.9765 153.308 11.0916C153.087 11.0916 152.976 11.2342 152.766 11.2342C152.444 11.2342 152.114 11.6621 151.753 11.6621C151.753 11.7293 151.376 11.9473 151.283 11.9473C151.134 12.1743 150.939 12.234 150.671 12.2796C150.671 12.4434 149.638 12.5459 149.401 12.5648C149.401 12.7055 148.015 12.4219 147.918 12.4219C147.596 12.4219 147.226 12.137 146.953 12.137C146.697 11.8968 146.396 11.6698 146.2 11.377C145.831 11.3452 145.648 11.2969 145.411 11.4876C145.206 11.6519 145.198 11.973 145.198 12.2104C145.198 12.489 145.08 12.699 145.004 12.96C144.839 13.526 145.462 13.7322 145.438 14.2272C145.411 14.7824 145.493 15.1802 145.461 15.7408C145.451 15.9281 145.451 16.1355 145.4 16.3175C145.305 16.6579 145.448 17.0226 145.353 17.3631C145.37 18.0839 145.47 18.8483 145.327 19.5538C145.272 19.8303 145.353 19.9737 145.353 20.2605C145.353 20.6535 145.368 21.0362 145.372 21.4272C145.376 21.7382 145.238 22.0715 145.206 22.3851C145.169 22.752 145.165 23.1225 145.165 23.4908C145.171 23.624 145.248 24.4412 145.165 24.4412C145.165 24.8182 145.071 25.1296 145.071 25.4625C145.071 25.9232 144.875 26.2029 144.914 26.7061C144.959 27.3 144.891 28.0335 144.82 28.7641C144.755 29.4311 144.662 30.0245 144.706 30.6409C144.722 30.8697 144.823 31.8044 144.976 31.8044C144.976 32.395 145.071 33.2333 145.071 33.824C145.071 34.0156 145.165 34.1666 145.165 34.3464C145.165 34.651 145.166 35.0826 145.155 35.46C145.15 35.6765 145.022 37.3147 144.929 37.3147C144.929 37.4725 144.754 38.4552 144.647 38.4552C144.647 38.5364 144.324 39.3107 144.317 39.3107C144.317 39.3965 144.242 39.7381 144.176 39.7381C144.176 39.9496 143.847 40.129 143.847 40.356C143.781 40.4118 143.235 40.7877 143.235 40.7357C143.019 40.7357 142.859 40.8915 142.597 40.8925C142.521 40.893 140.356 40.8786 140.152 40.8786C139.639 40.8786 139.334 40.7604 138.858 40.6406C138.656 40.3867 138.517 40.2113 138.27 39.9995C138.023 39.789 137.876 39.4696 137.634 39.287C137.516 39.1979 137.399 39.0078 137.399 38.8832C137.232 38.8832 137.295 38.1702 137.116 38.1702C137.116 38.0638 136.861 37.4109 136.787 37.4109C136.764 37.2724 136.684 36.6499 136.598 36.6499C136.598 36.191 136.598 35.7324 136.598 35.2727C136.47 35.2727 136.439 34.2278 136.316 34.2278C136.316 34.1069 136.095 33.2774 135.987 33.2774C135.948 33.1582 135.75 32.5647 135.704 32.5647C135.636 32.2937 135.471 32.1401 135.375 31.8523C135.235 31.7589 134.998 31.4893 134.998 31.3293C134.792 31.2251 134.772 30.5694 134.575 30.5694C134.575 30.3375 134.262 30.2146 134.198 29.9515C133.998 29.8007 133.969 29.5288 133.775 29.4296C133.775 29.3329 133.487 28.9044 133.398 28.8593C133.398 28.5958 133.184 28.5661 133.022 28.3604C132.964 28.2869 132.652 27.8616 132.646 27.8616C132.646 27.7908 132.564 27.5764 132.503 27.5764C132.503 27.431 132.369 27.2023 132.221 27.0777C131.924 26.8279 131.978 26.5773 131.797 26.2819C131.674 26.08 131.468 25.818 131.468 25.629C131.368 25.629 131.382 25.2301 131.233 25.1537C131.233 24.8766 130.762 24.7623 130.762 24.4885C130.56 24.385 130.285 23.9812 130.104 23.7765C129.965 23.7765 129.962 23.6734 129.841 23.5896C129.684 23.479 129.607 23.474 129.411 23.5058C129.331 23.5187 129.162 23.5316 129.162 23.6337C128.954 23.6337 129.015 23.7765 128.833 23.7765C128.833 23.9043 128.691 23.8607 128.691 24.0138C128.536 24.0939 128.597 24.2307 128.597 24.3935C128.597 24.5007 128.559 25.2015 128.456 25.2015C128.456 25.4028 128.072 27.0541 128.033 27.0541C128.033 27.5062 127.703 28.1247 127.703 28.622C127.657 28.622 127.421 29.2292 127.421 29.334C127.219 29.334 127.379 30.5694 127.185 30.5694C127.185 30.6828 127.316 31.7574 127.232 31.7574C127.232 32.5139 127.091 32.8951 127.091 33.5978C127.091 33.9819 127.091 34.3657 127.091 34.7493C127.091 35.1052 126.92 35.4589 126.809 35.7947C126.795 35.9261 126.765 36.6982 126.667 36.6982C126.667 36.9173 126.526 36.991 126.526 37.2208C126.479 37.2208 126.244 37.891 126.244 37.9811C125.837 38.1777 125.851 38.8675 125.182 38.6996C125.032 38.6614 123.563 38.5031 123.314 38.5031C122.99 38.5031 122.691 38.4552 122.385 38.4552C122.385 38.3516 121.179 38.3983 121.019 38.075C120.788 38.0241 120.637 38.0428 120.502 37.8383C120.365 37.8383 120.339 37.6772 120.219 37.5767C119.917 37.3211 119.929 36.9291 119.871 36.5174C119.819 36.1505 119.593 35.9766 119.581 35.5938C119.573 35.3522 119.606 35.1084 119.643 34.87C119.697 34.5214 119.575 34.2261 119.541 33.8857C119.516 33.6365 119.631 33.3987 119.68 33.1593C119.739 32.8661 119.649 32.7183 119.631 32.4225C119.619 32.2368 119.814 31.1393 119.749 31.1393C119.756 31.0093 119.75 30.2371 119.843 30.2371C119.843 30.1319 119.885 29.8097 119.984 29.8097C120.137 29.1213 120.221 28.4942 120.282 27.7031C120.354 26.7609 120.737 26.3221 120.737 25.3437C120.909 25.3437 120.834 24.2039 121.019 24.2039C121.019 23.779 121.302 23.3196 121.302 22.8733C121.386 22.8733 121.609 21.4822 121.678 21.2582C121.678 20.7255 121.824 20.1176 121.967 19.5033C122.057 19.1189 122.138 18.7323 122.236 18.3498C122.339 17.9455 122.32 17.5993 122.3 17.1826C122.282 16.7902 122.305 16.3965 122.389 16.012C122.468 15.6544 122.424 15.3263 122.458 14.9659C122.492 14.5988 122.479 14.2255 122.479 13.8548C122.479 13.6133 122.612 13.3101 122.581 13.0848C122.482 12.3446 122.434 11.6627 122.385 10.949C122.307 10.949 122.102 10.3095 122.102 10.1891C121.95 10.1891 121.897 8.57391 122.055 8.57391C122.055 8.39587 122.158 8.23713 122.181 7.98821C122.204 7.73303 122.193 7.70427 122.173 7.36277C122.136 6.72594 122.337 6.21579 122.337 5.60475C122.337 5.22673 122.525 4.82292 122.525 4.39317C122.497 4.39317 123.091 3.41609 123.091 3.30057C123.249 3.30057 123.332 3.01553 123.514 3.01553C123.617 2.88494 124.032 2.65577 124.032 2.58813C124.226 2.58813 124.322 2.47426 124.549 2.39806C124.549 2.34692 125.002 2.22667 125.114 2.20797C125.114 1.89544 126.58 2.15794 126.821 2.1725C127.194 2.19505 127.38 2.24146 127.703 2.35077C128.021 2.45689 128.218 2.74171 128.55 2.82545C128.55 3.01168 129.304 3.07397 129.304 3.20561C129.458 3.20561 129.703 3.29991 129.774 3.44298C129.944 3.44298 130.197 3.92882 130.197 4.06045C130.535 4.06045 130.461 5.5794 130.468 5.85388C130.471 5.96775 130.461 6.53157 130.574 6.53157C130.574 7.02555 130.583 7.51095 130.621 8.00389C130.633 8.16669 130.72 9.57177 130.716 9.57177C130.545 10.0841 130.716 10.6884 130.716 11.1397C130.791 11.1397 130.998 11.8167 130.998 11.9473C131.137 11.9473 131.011 12.4067 130.999 12.5068C130.976 12.699 131.327 12.9014 131.327 13.0867C131.504 13.178 131.609 13.526 131.609 13.7047C131.629 13.7047 131.892 14.1338 131.892 14.18C132.104 14.2852 132.103 14.5419 132.315 14.7023C132.315 14.9059 132.611 15.1207 132.692 15.3675C132.859 15.8755 133.681 16.1904 133.681 16.6976C133.72 16.6976 133.869 16.9571 133.869 17.0301C134.096 17.1451 134.274 17.5456 134.48 17.7189C134.593 17.813 134.81 18.0804 134.81 18.2179C134.996 18.3931 135.563 18.772 135.563 19.0255C135.725 19.1058 135.892 19.4046 135.94 19.5957C136.102 19.7364 136.646 20.1894 136.646 20.4033C136.994 20.6374 137.107 21.3412 137.633 21.3569C137.841 21.363 137.89 21.3934 138.01 21.2109C138.126 21.2109 137.99 21.1153 138.105 21.1153C138.179 20.791 138.316 20.5229 138.363 20.2841C138.384 20.1821 138.535 19.928 138.434 19.928C138.415 19.5775 138.434 19.2134 138.434 18.9303C138.53 18.9303 138.654 17.4232 138.67 17.173C138.858 17.173 138.678 16.5716 138.647 16.4631C138.559 16.1485 138.67 15.9599 138.67 15.7C138.696 15.7 138.811 13.8116 138.811 13.6095C138.811 13.382 138.833 11.8994 138.952 11.8994C138.952 11.6938 139.034 10.2838 139.14 10.2838C139.14 10.0598 139.197 9.14437 139.376 9.14437C139.416 8.8149 139.533 8.66089 139.374 8.3443C139.307 8.212 139.329 7.24356 139.423 7.24356C139.382 6.50364 139.47 6.02016 139.47 5.2959C139.627 5.2959 139.407 4.53618 139.564 4.53618C139.613 4.13501 139.712 3.98634 139.964 3.68073C140.267 3.3141 140.725 3.09971 141.211 2.92041C141.315 2.92041 141.917 2.82869 141.917 2.92041C142.112 2.92041 142.521 3.00052 142.623 3.20561C143.14 3.20561 143.646 3.49131 143.988 3.89445C144.086 4.00998 144.27 4.10384 144.27 4.25076C144.361 4.25076 144.352 4.38695 144.459 4.44062C144.459 4.61783 144.663 4.71235 144.788 4.82078C144.788 4.94944 144.912 5.07854 145.023 5.15349C145.023 5.21601 145.127 5.48598 145.165 5.48598C145.165 5.72505 145.259 5.99778 145.259 6.22223C145.259 6.50364 145.647 7.1684 146.042 7.12111C146.311 7.08823 146.344 6.86125 146.53 6.72165C146.53 6.64154 146.725 6.34143 146.766 6.34143C146.766 6.13353 146.977 5.92476 147.114 5.77119C147.323 5.53816 147.576 5.10901 147.876 5.00443C148.395 4.82293 149.623 4.67688 149.871 4.48829C149.914 4.31712 150.176 3.87081 150.389 3.87081C150.477 3.68673 151.612 3.4526 151.612 3.44298C152.009 3.47668 152.984 3.15601 153.26 3.0632C153.759 2.89528 159.567 2.26593 159.567 2.54085C159.812 2.54085 162.476 2.54734 162.739 2.55954C163.07 2.57565 166.721 2.72664 166.721 2.77822C166.861 2.77822 166.958 2.87807 167.106 2.86306C167.323 2.8409 169.112 3.15838 169.439 3.15838C169.956 3.15838 170.198 3.3087 170.735 3.32504C170.937 3.33169 172.981 3.70498 172.981 3.77586C173.152 3.77586 173.388 3.99172 173.593 4.06045C173.593 4.08195 174.42 4.22156 174.535 4.25076C174.535 4.34181 175.229 4.6307 175.334 4.6307C175.334 4.75892 175.805 4.92327 175.805 5.15349C175.985 5.24328 176.37 5.56714 176.37 5.77119C176.741 5.95483 176.728 6.53371 177.076 6.76866C177.076 6.95253 177.217 6.89128 177.217 7.10137C177.309 7.10137 177.231 7.22745 177.358 7.29145C177.402 7.51419 177.55 7.86532 177.734 7.95599C177.734 8.11666 177.876 8.14608 177.922 8.33681C178.025 8.33681 178.031 8.61817 178.049 8.70065C178.103 8.95644 178.253 9.32417 178.253 9.52453C178.437 9.52453 178.582 10.2125 178.582 10.3792C178.582 10.8519 178.77 11.3283 178.77 11.7572C178.77 11.986 178.864 12.2035 178.864 12.4219C178.864 12.6722 178.864 12.9944 178.864 13.3245C178.713 13.3245 178.714 14.5988 178.633 14.8398C178.489 15.265 178.212 16.4588 179.025 16.1194C179.172 16.0582 179.429 15.8553 179.429 15.7C179.61 15.5378 179.994 15.2629 179.994 15.0346C180.192 14.9332 180.16 14.6175 180.37 14.5122C180.37 14.2916 180.559 14.2433 180.559 14.0371C180.767 13.8979 180.766 13.5743 180.983 13.4673C180.983 13.3743 181.198 12.9922 181.265 12.9922C181.265 12.8526 181.573 12.137 181.641 12.137C181.641 12.016 181.868 11.1869 181.923 11.1869C181.994 10.6844 182.264 10.4996 182.347 9.999C182.434 9.999 182.488 9.71462 182.488 9.61905C182.645 9.5396 182.621 9.38922 182.772 9.26248C182.954 9.10891 182.929 9.01873 182.959 8.78785C182.992 8.53954 183.147 8.33033 183.147 8.14668C183.338 8.04897 183.301 7.84921 183.43 7.71862C183.589 7.55818 183.632 7.38206 183.853 7.19627C183.853 7.10824 183.917 6.8634 183.995 6.8634C183.995 6.42352 184.614 6.16531 184.936 6.05578C184.936 5.96775 185.977 5.81847 186.113 5.81847C186.113 5.78988 187.222 5.53321 187.337 5.53321C187.565 5.53321 188.937 5.4415 188.937 5.34357C189.357 5.34357 191.163 4.82078 191.242 4.82078C191.242 4.67688 197.85 3.0632 198.115 3.0632C198.115 2.93327 200.938 2.3158 200.938 2.2552C201.067 2.24382 201.738 2.20088 201.738 2.06512C201.968 2.06512 202.074 1.92315 202.304 1.92315C202.304 1.93305 203.904 1.5447 203.904 1.6854C204.047 1.6854 204.469 1.69464 204.469 1.82759C204.691 1.82759 204.821 2.11279 205.034 2.11279C205.243 2.35505 205.454 2.58813 205.74 2.58813C205.74 2.62827 205.908 2.67083 205.974 2.75457C206.085 2.89313 206.695 4.35902 206.745 4.68871C206.776 4.89682 207.123 5.85174 207.151 5.96127Z" fill="white"/>
<path fill-rule="evenodd" clip-rule="evenodd" d="M271.444 29.2387C271.628 29.2387 272.509 29.3809 272.739 29.3809C272.827 29.3809 273.092 29.2136 273.092 29.3809C273.396 29.4829 273.578 29.6189 273.845 29.6189C274.132 29.6189 274.299 29.7473 274.52 29.7256C274.736 29.7052 274.926 29.6365 275.141 29.7735C275.301 29.8738 275.401 30.1161 275.398 30.281C275.394 30.435 275.391 30.624 275.304 30.7587C275.22 30.8292 271.454 31.3285 271.303 31.3285C271.303 31.567 267.24 31.7785 266.776 31.8219C266.651 31.8343 266.267 31.8128 266.267 31.7087C265.981 31.6894 265.397 31.7817 265.326 31.5665C265.2 31.5665 265.241 31.4241 265.091 31.4241C265.091 31.3225 264.857 31.3296 264.776 31.3128C264.69 31.2952 264.244 31.045 264.244 30.9961C263.931 30.9193 263.071 30.4275 263.182 30.0091C263.257 29.7256 263.482 29.4906 263.713 29.325C264.027 29.0991 264.296 29.1618 264.667 29.1914C264.667 29.0469 265.364 29.2527 265.467 29.2698C265.549 29.2838 265.844 29.2778 265.844 29.3809C266.028 29.3622 268.684 29.1914 269.326 29.1914C269.326 29.3594 270.991 29.0061 271.444 29.2387ZM219.107 13.0387C219.452 13.1345 219.462 13.741 219.504 14.0256C219.535 14.2339 219.64 15.8416 219.718 15.8416C219.708 16.0338 219.729 17.5524 219.624 17.5524C219.624 18.0575 219.483 18.4158 219.483 18.8346C219.296 18.9291 219.436 19.0706 219.248 19.1675C219.248 19.3028 218.934 19.6304 218.823 19.7135C218.505 19.9547 218.241 19.997 217.816 19.9255C217.452 19.8649 217.094 20.1199 216.727 20.1632C216.549 20.185 215.859 20.1716 215.859 19.9751C215.356 19.5681 215.694 19.0635 215.811 18.5971C215.872 18.5971 215.953 18.2772 215.953 18.2171C216.093 18.2171 216.113 17.7418 216.235 17.7418C216.235 17.5942 216.479 17.0723 216.658 16.9821C216.658 16.7297 216.894 16.501 216.894 16.2218C217.053 16.2218 217.043 15.6004 217.223 15.5091C217.223 15.3018 217.484 15.1489 217.553 14.9395C217.64 14.6764 217.731 14.6098 217.788 14.3692C217.809 14.3692 218.182 13.6852 218.212 13.5617C218.356 13.5617 218.208 13.2764 218.353 13.2764C218.353 12.9837 218.899 12.8222 219.107 13.0387ZM221.883 3.72717C222.108 3.72717 222.23 4.11377 222.401 4.20251C222.422 4.28647 223.479 5.80372 223.703 6.00776C223.836 6.12846 224.048 6.37225 224.048 6.53077C224.169 6.59087 224.426 7.02151 224.426 7.14803C224.568 7.22023 224.623 7.42982 224.66 7.59929C224.718 7.86178 225.036 8.00716 225.036 8.24041C225.164 8.3038 225.272 8.62057 225.272 8.7632C225.358 8.7632 225.46 9.08557 225.46 9.19081C225.616 9.19081 225.698 11.1095 225.719 11.2813C225.778 11.7611 226.025 12.1295 226.025 12.564C226.2 12.564 226.219 13.6562 226.355 13.6562C226.355 13.7689 226.643 14.9868 226.684 14.9868C226.684 15.194 226.789 16.2218 226.92 16.2218C226.93 16.3173 226.992 16.8865 227.06 16.8865C227.06 17.1191 227.154 17.1958 227.154 17.3859C227.154 17.6868 227.208 18.4791 227.706 18.5414C227.982 18.5758 228.237 18.0596 228.237 17.8846C228.305 17.8846 228.402 17.6007 228.425 17.5045C228.68 17.3741 228.649 16.9144 228.897 16.792C228.99 16.501 229.185 16.3463 229.273 16.0794C229.359 15.8158 229.437 15.6706 229.649 15.5091C229.649 15.3981 229.836 15.1289 229.932 15.0817C229.977 14.9051 230.073 14.8912 230.073 14.7494C230.145 14.7005 230.355 14.493 230.355 14.4165C230.65 14.4165 230.719 13.8935 231.014 13.8935C231.094 13.7318 231.665 13.2524 231.736 13.0548C231.807 12.8565 231.795 12.7272 232.002 12.659C232.002 12.6424 232.345 12.3739 232.426 12.3739C232.426 12.3013 232.855 12.0232 232.944 11.9935C233.171 11.9175 233.415 11.8722 233.415 11.7564C233.588 11.7564 234.433 11.1286 234.497 10.9961C234.739 10.9961 234.825 10.6159 235.062 10.6159C235.133 10.5075 235.627 10.2895 235.627 10.2357C235.865 10.1773 235.89 10.0966 236.144 10.0461C236.211 9.90819 236.709 9.74929 236.709 9.66549C236.778 9.66549 236.991 9.58389 236.991 9.52374C237.173 9.47755 237.566 9.3109 237.651 9.14358C238.006 9.14358 238.43 8.69793 238.804 8.64421C239.168 8.59137 239.449 8.38111 239.816 8.28808C239.816 8.23722 240.384 8.07287 240.474 8.05032C240.474 8.02674 241.265 7.87207 241.401 7.84523C241.605 7.80399 241.737 7.73675 241.934 7.67016C242.032 7.63689 242.357 7.4803 242.357 7.43285C243.071 7.31254 244.576 6.86261 244.663 6.86261C244.663 6.80784 245.164 6.76787 245.275 6.76787C245.275 6.71222 245.662 6.62524 245.746 6.62524C245.746 6.57262 246.513 6.53077 246.64 6.53077C246.64 6.31749 248.907 6.18366 249.101 6.18322C249.332 6.18278 249.492 6.19785 249.676 6.19785C249.936 6.19785 250.09 6.10266 250.405 6.10266C250.658 6.10266 251.073 6.15144 251.336 6.29275C251.511 6.38792 251.688 6.48283 251.865 6.57801C251.926 6.70255 252.147 6.67357 252.147 6.76787C252.447 6.84413 252.658 7.15793 252.837 7.41718C253.004 7.6573 253.241 7.73076 253.449 7.97131C253.622 8.17063 253.742 8.39442 253.935 8.5261C253.935 8.70134 254.03 8.60127 254.03 8.81065C254.03 9.04906 254.28 9.16332 254.453 9.30942C254.748 9.55811 254.734 10.0714 255.065 10.2357C255.204 10.4636 255.225 10.7877 255.254 11.0433C255.396 11.0433 255.547 11.7182 255.583 11.8509C255.744 11.8509 255.808 12.9281 255.839 13.1589C255.903 13.6336 255.818 14.1158 255.818 14.5114C255.818 14.7601 255.874 16.0794 255.677 16.0794C255.677 16.1788 255.653 16.649 255.583 16.649C255.583 16.8618 255.442 16.98 255.442 17.1722C255.34 17.1722 255.143 18.2923 254.971 18.4072C254.971 18.5478 254.889 18.564 254.782 18.6445C254.67 18.9918 254.418 19.1289 254.312 19.4843C254.249 19.6982 254.182 19.6497 254.123 19.8793C253.994 19.9942 253.747 20.1276 253.747 20.3069C253.642 20.3604 253.465 20.6166 253.465 20.7348C253.2 20.868 253.102 21.2101 252.806 21.2101C252.806 21.2734 251.389 21.3044 251.252 21.3044C251.252 21.4582 250.635 21.2314 250.547 21.2101C250.441 21.0017 250.346 21.0672 250.194 21.0672C250.004 21.0672 249.041 21.1221 249.041 20.8772C248.83 20.8772 248.714 20.6055 248.476 20.5447C248.416 20.4175 248.125 20.3069 248.006 20.3069C248.006 20.2844 247.738 20.0943 247.66 20.0524C247.55 19.9933 247.43 19.9433 247.336 19.858C247.271 19.7996 247.228 19.7274 247.205 19.6422C247.11 19.6222 247.034 19.5717 246.978 19.4906C246.771 19.1707 246.698 18.6147 246.762 18.2471C246.774 18.1731 246.828 17.3816 246.828 17.0766C246.896 17.0766 246.831 16.6019 246.782 16.6019C246.782 16.3958 246.917 15.3087 247.072 15.0104C247.225 14.7165 247.205 14.4444 247.205 14.1076C247.205 13.8989 247.067 13.4199 246.875 13.3237C246.875 13.1454 246.513 12.9914 246.358 12.9914C246.108 12.9914 245.654 12.9603 245.417 13.0387C245.417 13.0917 245.023 13.2376 244.923 13.2524C244.686 13.2868 244.425 13.3716 244.193 13.3716C244.193 13.412 243.854 13.54 243.769 13.5617C243.769 13.6409 243.246 13.706 243.11 13.7518C242.82 13.8493 242.748 14.1029 242.451 14.1792C242.451 14.3435 241.981 14.3199 241.981 14.4165C241.714 14.4702 241.66 14.5926 241.416 14.6538C241.195 14.9337 240.993 14.9868 240.757 15.2718C240.398 15.3916 240.293 15.4979 240.003 15.7462C240.003 15.9576 239.653 16.1047 239.533 16.2454C239.333 16.4816 239.122 16.5366 238.921 16.792C238.775 16.792 238.262 17.3097 238.262 17.4567C238.047 17.6019 238.011 17.8137 237.792 17.9797C237.792 18.187 237.463 18.2901 237.463 18.5021C237.218 18.7175 237.038 18.8894 236.944 19.1675C236.824 19.2287 236.521 19.5977 236.521 19.7371C236.347 19.8258 236.19 20.1658 236.144 20.3552C235.96 20.5045 235.902 20.6903 235.72 20.7827C235.72 20.9481 235.579 21.0211 235.579 21.1624C235.538 21.1624 235.201 21.6006 235.18 21.7084C235.157 21.8274 234.946 22.4923 234.873 22.4923C234.873 22.853 234.562 23.1464 234.528 23.649C234.506 23.9683 234.58 24.2776 234.555 24.6069C234.55 24.6847 234.442 24.9628 234.592 24.9628C234.592 25.2362 234.926 25.3279 235.062 25.533C235.361 25.6088 235.432 25.8054 235.695 25.9289C235.822 25.988 235.896 26.0384 235.98 26.1505C236.083 26.2891 236.207 26.2338 236.285 26.3879C236.507 26.3879 236.611 26.768 236.803 26.768C236.909 26.9781 237.221 26.9882 237.391 27.1961C237.543 27.3787 238.545 27.8738 238.545 28.0982C238.704 28.0982 238.97 28.3377 239.063 28.4784C239.224 28.4784 239.122 28.6684 239.345 28.6684C239.417 28.6684 239.674 28.6996 239.674 28.7629C239.806 28.7629 240.033 28.9165 240.098 29.0486C240.289 29.0486 240.449 29.3267 240.663 29.3809C240.663 29.5806 241.51 29.6655 241.51 29.8089C241.789 29.8089 242.047 30.0935 242.311 30.0935C242.311 30.2496 243.158 30.3133 243.158 30.4737C243.557 30.4988 243.905 30.5194 244.287 30.647C244.664 30.7748 244.987 30.9011 245.385 30.9011C245.628 30.9011 246.687 30.9473 246.687 30.8532C246.874 30.8532 248.193 30.871 248.193 30.7587C248.452 30.7587 248.561 30.6638 248.805 30.6638C248.805 30.5328 249.445 30.5321 249.606 30.5209C249.606 30.4484 250.247 30.1414 250.358 30.1414C250.412 30.0327 250.547 30.0431 250.547 29.9507C250.77 29.9507 250.832 29.781 250.97 29.6189C251.12 29.6189 251.603 29.3203 251.7 29.1914C251.851 28.9885 252.167 28.6684 252.43 28.6684C252.479 28.5675 252.78 28.4311 252.9 28.4311C252.9 28.2919 253.367 28.3462 253.465 28.3832C253.465 28.4998 253.559 28.3624 253.559 28.4784C253.78 28.4784 253.825 28.6803 253.935 28.8585C254.121 28.9208 254.202 28.8998 254.265 29.0958C254.372 29.1499 254.331 29.2387 254.407 29.2387C254.407 29.3862 254.688 29.4975 254.688 29.5705C255.083 29.8787 255.677 29.3858 255.677 29.0486C256.046 29.0486 255.691 26.0556 255.865 26.0556C255.865 25.6922 256.148 25.263 256.148 24.8679C256.297 24.8679 256.289 23.7757 256.477 23.7757C256.477 23.4082 256.677 23.1285 256.806 22.7301C256.937 22.7301 256.942 21.7324 257.136 21.7324C257.136 21.5828 257.472 20.497 257.56 20.497C257.56 20.3725 257.916 19.262 257.983 19.262C257.983 19.1944 258.073 18.8818 258.125 18.8818C258.125 18.8174 258.305 18.4072 258.36 18.4072C258.393 18.2096 258.717 17.3623 258.83 17.3623C258.83 17.0723 259.126 16.7742 259.183 16.4831C259.217 16.3173 259.395 16.1453 259.395 15.9844C259.475 15.9844 259.619 15.5173 259.771 15.4142C259.771 15.267 259.814 15.3369 259.866 15.1289C259.929 15.1289 259.943 14.8454 259.964 14.764C260.052 14.4038 260.061 14.0147 259.96 13.6562C259.96 13.3748 259.888 13.1568 259.863 12.8849C259.845 12.6939 259.96 12.4469 259.96 12.1838C260.018 12.1838 260.153 11.329 260.29 11.329C260.29 11.1496 260.599 10.3784 260.761 10.3784C260.821 10.1391 260.905 9.64295 261.113 9.47563C261.271 9.34873 261.425 8.9535 261.654 8.9535C261.8 8.73334 262.006 8.68826 262.197 8.45391C262.408 8.19207 262.536 8.098 262.832 8.098C262.832 7.95047 263.8 7.86668 264.008 7.79883C264.385 7.67704 264.761 7.55524 265.137 7.43285C265.561 7.43285 265.832 7.37935 266.243 7.35015C266.717 7.31579 270.315 6.64564 270.315 6.72086C270.74 6.72086 273.865 6.06253 274.586 6.01937C275.246 5.98093 275.938 5.63382 276.669 5.59642C276.905 5.58334 278.457 5.53737 278.457 5.39023C279.096 5.39023 279.533 5.34278 280.058 5.34278C280.058 5.21412 281.159 5.1527 281.352 5.1527C281.87 5.1527 284.307 4.68363 284.482 4.65355C284.705 4.61594 285.29 4.59923 285.53 4.48926C285.763 4.38182 287.781 3.97955 288.012 3.96515C288.012 3.80729 288.859 3.69391 288.859 3.53753C289.033 3.53753 290.225 3.43251 290.225 3.34767C290.601 3.29269 290.858 3.24348 291.221 3.36637C291.391 3.42393 291.56 3.48084 291.73 3.53753C291.859 3.68164 292.05 4.01243 292.248 4.01243C292.34 4.13593 292.577 4.32276 292.577 4.43982C292.826 4.64926 293.052 4.95036 293.284 5.10503C293.284 5.26828 293.471 5.34729 293.471 5.53242C293.593 5.53242 293.736 6.02387 293.895 6.10266C293.993 6.40403 294.235 6.57691 294.319 6.91094C294.37 6.91094 294.601 7.46249 294.601 7.57564C294.661 7.57564 294.775 8.24041 294.884 8.24041C294.868 8.42988 295.154 12.1362 294.884 12.1362C294.884 12.4119 294.863 12.6069 294.603 12.7766C294.365 12.9313 294.033 13.0956 293.779 13.0144C293.52 12.9323 293.526 12.9914 293.284 12.9914C292.869 12.9914 292.521 12.9444 292.118 12.8486C291.65 12.7369 289.8 12.6112 289.189 12.6112C288.858 12.7057 288.51 12.7057 288.168 12.7057C287.846 12.7057 287.641 12.8013 287.353 12.8013C287.061 12.8013 286.831 12.855 286.548 12.9001C286.256 12.9463 286.104 12.8593 285.87 12.825C285.792 12.8136 285.423 12.8744 285.423 12.9435C285.059 12.9435 284.554 12.8527 284.209 12.9714C283.96 13.058 282.37 13.0451 282.116 13.1106C281.94 13.1562 281.661 13.2459 281.516 13.2285C281.193 13.1884 281.002 13.1697 280.689 13.2689C280.37 13.3694 280.14 13.2764 279.893 13.2764C279.62 13.2764 279.27 13.3136 278.927 13.3716C278.927 13.4704 277.942 13.4661 277.793 13.4691C277.589 13.4747 275.964 13.6615 275.964 13.6562C275.724 13.6788 273.798 13.7962 273.798 13.799C273.222 13.8559 273.017 14.0299 272.449 14.0524C272.223 14.0608 268.902 14.4788 268.902 14.6066C268.582 14.6876 268.632 14.802 268.385 15.0104C268.047 15.295 267.835 15.4389 267.49 15.6992C267.49 15.8667 267.232 16.106 267.161 16.3167C267.05 16.3167 267.086 16.6019 266.973 16.6019C266.973 16.8608 266.269 17.8155 266.251 18.0431C266.214 18.5328 266.264 18.8024 266.644 19.1196C267.172 19.1196 267.631 19.262 268.197 19.262C268.197 19.3623 268.847 19.3393 268.95 19.3333C269.345 19.3112 269.657 19.3756 270.08 19.4048C270.624 19.4048 271.122 19.4611 271.692 19.5487C271.978 19.5917 272.155 19.4994 272.386 19.4994C272.386 19.4218 273.169 19.415 273.274 19.4181C273.412 19.4231 274.713 19.2148 274.928 19.2148C274.928 19.262 276.023 18.951 276.151 18.9295C276.467 18.4521 276.962 18.4673 277.469 18.5971C277.469 18.5934 277.882 18.7874 277.94 18.7874C278.004 18.872 278.363 19.0874 278.363 19.1196C278.45 19.1196 278.74 19.2212 278.74 19.3097C278.971 19.3097 279.053 19.6561 279.21 19.7371C279.21 19.8484 280.764 22.2475 280.764 22.4451C280.989 22.5628 280.999 22.9895 280.999 23.2054C280.999 23.5038 281.093 23.6412 281.093 23.8938C281.093 24.2461 281.097 24.5983 281.098 24.9506C281.099 25.2169 281.059 26.483 280.81 26.483C280.81 26.6634 280.733 26.8013 280.576 26.9345C280.368 27.1085 279.869 27.6433 279.869 27.9558C279.771 28.1927 278.88 28.7254 278.88 28.8112C278.49 28.8112 278.168 28.9401 277.798 29.0647C277.552 29.1474 277.332 29.3332 277.14 29.3332C277.14 29.4292 276.774 29.5555 276.692 29.6661C276.367 30.1032 276.945 30.6616 277.281 30.9724C277.46 31.1385 277.645 31.2931 277.704 31.519C278.033 31.5841 278.267 31.8751 278.363 32.1844C278.363 32.832 278.253 35.9367 278.128 35.9367C278.128 36.1078 277.568 37.9045 277.173 38.0598C276.969 38.1403 275.11 39.0725 274.739 39.0725C274.739 39.4623 267.49 40.1743 266.597 40.17C266.466 40.1694 265.137 40.2463 265.137 40.0695C264.684 40.0695 264.137 39.9231 263.725 39.7849C263.538 39.7222 261.432 39.2497 261.231 38.8345C261.105 38.8345 260.801 38.5892 260.713 38.4787C260.627 38.368 260.222 38.1221 260.102 38.1221C260.03 37.9797 259.917 37.9814 259.771 37.932C259.682 37.8182 259.641 37.6947 259.49 37.6947C259.344 37.4717 259.037 37.2587 258.83 37.0299C258.75 37.0299 258.454 36.8431 258.454 36.7926C258.285 36.6777 258.37 36.6298 258.218 36.5546C258.218 36.3055 257.994 36.2872 257.889 36.0795C257.692 36.0795 257.405 35.7073 257.277 35.5565C257.172 35.5024 256.948 35.186 256.948 35.0818C256.739 34.9137 256.721 34.759 256.571 34.6072C256.498 34.532 256.101 34.3617 256.101 34.4171C255.731 34.4171 255.545 35.2719 255.394 35.2719C255.394 35.4389 255.213 35.616 255.183 35.7949C255.168 35.8798 255.027 36.3641 254.925 36.3641C254.925 36.5123 254.654 37.097 254.5 37.1717C254.5 37.263 254.053 37.9803 254.03 37.9803C254.03 38.1146 253.838 38.362 253.724 38.4544C253.495 38.6397 253.511 38.9146 253.276 39.0725C253.033 39.3592 252.802 39.4505 252.571 39.6997C252.308 39.9815 252.01 40.401 251.653 40.474C251.3 40.5459 251.079 40.7822 250.711 40.7822C250.507 40.7822 250.352 40.8842 250.076 40.9014C249.659 40.9265 249.291 40.9905 248.833 41.0109C248.276 41.0346 247.58 40.8982 246.96 40.8681C246.64 40.8531 246.286 40.7822 246.029 40.7822C245.8 40.7822 245.692 40.6398 245.464 40.6398C245.387 40.6398 244.852 40.7489 244.852 40.5932C244.599 40.5502 244.541 40.4611 244.334 40.4267C243.966 40.3645 243.712 40.1404 243.331 40.1018C243.029 40.0713 242.908 39.9413 242.64 39.8956C242.528 39.8769 241.981 39.7867 241.981 39.6428C241.882 39.6299 241.369 39.5702 241.369 39.4527C241.158 39.4527 241.036 39.2734 240.804 39.2147C240.804 39.0908 239.862 38.8846 239.862 38.8345C239.776 38.8345 239.392 38.7518 239.392 38.6444C239.144 38.6444 238.966 38.2643 238.686 38.2643C238.686 38.1822 238.134 37.932 238.027 37.932C238.027 37.8815 237.687 37.6947 237.604 37.6947C237.478 37.4451 237.16 37.5186 237.039 37.2672C236.923 37.2672 236.667 37.089 236.615 36.9816C236.523 36.9816 236.362 36.9165 236.285 36.8392C236.183 36.7361 235.967 36.6057 235.815 36.5546C235.61 36.3055 235.436 36.2163 235.203 36.0795C235.025 36.0795 234.716 35.8243 234.592 35.6757C234.438 35.4953 234.274 35.3868 234.074 35.3192C233.986 35.1463 233.73 35.0765 233.602 34.9147C233.402 34.662 233.117 34.6298 232.944 34.3688C232.546 34.0852 232.233 33.6192 231.814 33.514C231.47 33.0779 231.056 32.9104 230.701 32.5002C230.551 32.3294 230.459 32.3208 230.402 32.0889C230.29 31.9976 230.167 31.9572 230.167 31.8036C230.072 31.6872 229.961 31.7678 229.885 31.6135C229.746 31.6135 229.085 30.7443 229.085 30.5209C228.713 30.2411 228.668 29.737 228.285 29.476C228.285 29.3167 228.191 29.3976 228.191 29.2387C228.005 29.1141 228.024 28.9777 227.873 28.8112C227.744 28.6685 227.614 28.5256 227.485 28.3832C227.343 28.3832 227.202 28.3832 227.06 28.3832C227.074 28.4934 227.042 28.5411 226.966 28.5263C226.966 28.6732 226.664 29.6661 226.59 29.6661C226.554 30.4361 226.394 31.198 226.418 31.9686C226.439 32.6376 226.684 33.3024 226.684 33.9575C226.684 34.7773 226.778 35.5484 226.778 36.3173C226.629 36.3173 226.697 37.5304 226.668 37.7531C226.641 37.9632 226.595 38.2789 226.401 38.4074C226.401 38.5495 226.218 38.9511 226.181 39.1374C226.109 39.4988 225.907 39.7624 225.665 40.0835C225.523 40.2721 225.295 40.4214 225.084 40.5442C225.084 40.6699 224.707 40.7042 224.707 40.7822C224.593 40.7822 223.954 40.8256 223.954 40.7349C223.679 40.7349 223.93 40.6877 223.72 40.6877C223.72 40.5792 223.414 40.6909 223.343 40.7032C223.107 40.7429 222.977 40.6512 222.746 40.6082C222.598 40.5814 221.977 40.3887 221.977 40.2603C221.686 40.2603 221.15 40.082 220.966 39.8329C220.843 39.6675 220.567 39.3346 220.424 39.2626C220.36 39.065 220.094 38.8914 220.094 38.6923C219.652 38.4615 219.694 37.5916 219.671 37.1245C219.443 36.3094 219.524 35.3911 219.496 34.5524C219.479 33.9886 219.47 33.3694 219.561 32.8646C219.674 32.2413 219.624 31.6318 219.624 30.9644C219.624 30.566 219.196 30.0097 218.776 29.9035C218.776 29.6403 217.13 29.7026 217.13 29.8089C216.425 29.7917 215.616 29.8089 214.988 29.8089C214.901 29.8089 214.07 30.0613 214.07 30.0935C213.687 30.0935 213.376 30.2836 213.035 30.2836C213.035 30.2986 211.803 30.594 211.623 30.6159C211.623 30.7067 210.634 30.7196 210.634 30.9011C210.555 30.9011 210.305 31.0203 210.305 31.0912C210.078 31.1475 209.939 31.2813 209.74 31.2813C209.493 31.5723 209.211 31.8128 208.955 32.0932C208.864 32.193 208.625 32.8009 208.563 32.8009C208.528 32.9093 208.334 33.2766 208.281 33.2766C208.281 33.4527 208.092 33.5605 208.092 33.7519C207.919 33.8672 207.93 34.096 207.763 34.1791C207.763 34.2378 207.572 34.6538 207.575 34.6538C207.538 34.9212 207.434 35.0561 207.434 35.2719C207.313 35.2719 206.813 36.8871 206.68 36.8871C206.622 37.1281 206.553 37.0733 206.492 37.3139C206.321 37.429 206.375 37.5637 206.21 37.6474C206.068 38.042 205.868 38.3004 205.74 38.6923C205.633 38.7454 205.674 38.8345 205.599 38.8345C205.599 39.0021 205.432 39.0833 205.316 39.1911C205.045 39.4419 204.816 39.5923 204.563 39.8795C204.283 39.9735 203.923 40.4901 203.591 40.198C203.382 40.0133 201.025 38.8088 200.75 38.7396C200.622 38.5667 200.327 38.4565 200.327 38.2643C200.061 38.1329 199.907 37.1245 199.809 37.1245C199.741 36.6358 199.572 36.1315 199.549 35.5902C199.544 35.4695 199.576 35.1295 199.668 35.1295C199.668 34.9599 199.614 34.227 199.761 34.227C199.879 33.7614 200.044 33.4119 200.186 32.811C200.281 32.4035 200.75 32.0502 200.75 31.6135C200.821 31.6135 200.938 31.3625 200.938 31.2813C201.147 31.1417 201.148 30.9683 201.362 30.806C201.362 30.7035 201.504 30.3781 201.598 30.3315C201.598 30.197 201.989 29.7134 202.069 29.7134C202.069 29.5104 202.39 28.9573 202.586 28.8585C202.716 28.4584 203.103 28.0703 203.103 27.6708C203.305 27.6708 203.329 26.8632 203.48 26.8632C203.48 26.6903 203.632 26.5153 203.668 26.293C203.771 26.293 203.857 25.8795 203.857 25.7704C204.122 25.7704 204.144 24.6305 204.327 24.6305C204.327 24.4437 204.422 24.3094 204.422 24.0441C204.422 23.7886 204.346 23.5497 204.402 23.228C204.451 22.9487 204.49 22.6807 204.515 22.3979C204.646 22.1474 204.941 21.9726 205.128 21.7642C205.291 21.5806 205.357 21.4605 205.599 21.4002C205.711 21.2262 205.847 21.2821 205.928 21.1145C206.144 21.1145 206.378 20.767 206.571 20.5926C206.818 20.3682 206.984 20.1037 207.095 19.7655C207.145 19.6143 207.27 19.0719 207.386 19.0719C207.386 18.9109 207.745 18.274 207.857 18.2171C207.857 17.9626 208.135 17.7553 208.234 17.4567C208.353 17.0981 208.553 16.9692 208.657 16.554C208.785 16.4902 208.893 16.1756 208.893 16.0316C208.947 16.0316 209.127 15.621 209.222 15.5561C209.222 15.3491 209.495 15.2417 209.529 15.0104C209.54 14.9255 209.748 14.3692 209.834 14.3692C209.834 14.1835 209.993 14.0277 210.069 13.799C210.223 13.72 210.181 13.3716 210.305 13.3716C210.305 13.1557 210.486 12.9731 210.541 12.7534C210.668 12.6896 210.767 12.3267 210.87 12.3267C210.87 12.0779 211.246 11.8262 211.246 11.5664C211.374 11.5664 211.383 11.163 211.529 11.0908C211.667 10.5218 212.329 10.2583 212.329 9.66549C212.433 9.61287 212.611 9.39701 212.611 9.28555C212.769 9.17795 212.845 9.05165 212.894 8.85794C213.186 8.71058 213.234 8.18779 213.505 8.05032C213.505 7.94937 213.82 7.43285 213.882 7.43285C214.004 7.0688 214.776 6.70579 214.776 6.34064C214.838 6.34064 214.964 6.12587 214.964 6.05499C215.14 5.8907 215.316 5.72597 215.491 5.56079C215.676 5.38809 215.841 5.1974 216.011 5.01007C216.194 4.80971 216.477 4.75126 216.565 4.4875C216.774 4.31847 217.159 4.09298 217.271 3.87002C217.439 3.87002 217.559 3.58004 217.695 3.46622C217.898 3.29505 217.952 3.17628 218.212 3.10948C218.506 2.53044 219.558 2.88739 220.001 2.94386C220.072 2.95288 220.331 2.99907 220.331 3.06241C220.478 3.06241 220.764 3.08281 220.954 3.14252C221.25 3.236 221.791 3.3745 221.883 3.72717Z" fill="white"/>
<path d="M53.6206 12.3744C53.5851 12.689 53.4793 12.8344 53.4793 13.0864C53.4306 13.0864 53.1965 13.5421 53.1965 13.6091C53.0931 13.6609 52.8673 14.0207 52.8673 14.1315C52.7656 14.2095 52.5836 14.5119 52.5379 14.5119C52.4485 14.7875 52.2028 14.9764 51.9729 15.1891C51.801 15.3474 51.5348 15.8897 51.3144 15.8897C51.2605 15.996 51.126 15.9892 51.126 16.0798C50.9507 16.0798 50.8562 16.286 50.7492 16.4123C50.6292 16.4123 50.2791 16.6969 50.2085 16.7925C50.1189 16.9117 49.9646 16.9793 49.8318 17.0061C49.5963 17.0534 49.3451 17.1108 49.0447 17.0622C48.8149 17.0255 48.82 16.7463 48.82 16.5544C48.677 16.5544 48.9191 15.0503 48.9449 14.892C48.9887 14.6253 49.1021 14.4782 49.1021 14.2746C49.2671 14.2746 49.0781 13.4191 49.2432 13.4191C49.2432 13.1186 49.3375 13.0402 49.3375 12.7539C49.4254 12.7539 49.3843 11.9809 49.3843 11.8514C49.5139 11.3993 49.3896 11.0386 49.3601 10.5745C49.3451 10.3468 49.4766 9.38134 49.5728 9.38134C49.5728 9.14513 49.908 8.71877 50.1374 8.52655C50.6547 8.53403 50.8977 8.81109 51.3612 8.81109C51.3612 8.8691 52.127 9.17949 52.3021 9.23855C52.4883 9.48834 52.7973 9.60579 52.9614 9.85602C53.1648 9.85602 53.241 10.1395 53.3848 10.2362C53.3848 10.3157 53.541 10.6636 53.5733 10.6636C53.677 10.9815 53.7272 11.154 53.7498 11.5189C53.7564 11.6228 53.8179 12.3744 53.6206 12.3744ZM64.2575 31.7092C64.239 31.7092 64.0571 31.1507 64.0222 31.0444C63.8817 30.9306 63.6632 30.7931 63.5984 30.6642C63.3571 30.5826 63.3925 30.1889 63.1277 30.1889C62.9861 30.0628 62.8858 29.8835 62.7513 29.7138C62.2599 29.5903 62.1815 28.9679 61.7163 28.8117C61.4782 28.7312 61.3872 28.5851 61.1508 28.5267C61.1089 28.4402 60.7826 28.2415 60.6801 28.2415C60.5412 28.031 60.3707 28.0299 60.2095 27.8141C60.1272 27.8141 59.692 27.537 59.692 27.4811C59.4278 27.4145 59.3776 27.3387 59.0802 27.3387C58.9266 27.16 58.6068 26.6263 58.3742 26.6263C58.3279 26.534 57.9569 26.2934 57.8561 26.2934C57.6655 26.0625 57.4906 25.968 57.2912 25.7467C57.0788 25.5116 56.9971 25.2699 56.7737 25.082C56.588 24.9263 56.2088 24.6707 56.2088 24.4409C56.059 24.4409 56.0917 23.9405 56.1391 23.8384C56.2213 23.6623 56.3711 23.5474 56.5101 23.4206C56.6697 23.2753 56.7737 23.0888 56.7737 22.9207C56.9055 22.9207 57.6513 22.1296 57.7592 21.9462C57.897 21.7127 58.0256 21.5798 58.2326 21.4006C58.281 21.2529 58.28 21.1399 58.4211 21.0677C58.4423 20.9607 58.5529 20.5452 58.6569 20.5452C58.6569 20.331 59.011 20.1345 59.0568 19.904C59.1205 19.5804 59.4566 19.3591 59.4566 19.0251C59.5563 19.0251 59.7862 18.1063 59.7862 17.9802C59.9518 17.9802 59.7617 17.1247 59.9278 17.1247C59.9278 17.0427 60.0204 16.6494 60.0684 16.6494C60.1321 16.3919 60.2569 16.3032 60.2569 16.0557C60.2569 15.8163 60.3854 15.6054 60.4448 15.3672C60.4775 15.3672 60.5864 15.0037 60.5864 14.9399C60.7166 14.9399 60.6801 14.4049 60.6801 14.2621C60.6801 13.9345 60.6562 13.5288 60.6725 13.134C60.6834 12.8823 60.5864 12.7996 60.5864 12.5172C60.5668 12.5172 60.6981 11.5668 60.4448 11.5668C60.4448 11.134 60.2569 10.8204 60.2569 10.4263C60.192 10.4263 59.9741 9.73681 59.9741 9.61871C59.8794 9.61871 59.8031 9.09031 59.7862 8.95395C59.7197 8.95395 59.5977 8.62316 59.5977 8.52655C59.3542 8.52655 59.4038 7.43329 59.1271 7.43329C59.1271 7.18949 58.7506 7.05225 58.7506 6.81576C58.6597 6.81576 57.9204 5.55178 57.8561 5.20059C57.7891 5.20059 57.6366 4.83011 57.5505 4.72531C57.4084 4.55282 56.9148 4.15721 56.9148 3.96559C56.7454 3.84941 56.5896 3.44263 56.3504 3.44263C56.0721 3.11635 55.9658 3.06027 55.5655 2.93617C55.1563 2.80899 55.3116 2.6039 55.0556 2.39771C54.7805 2.1743 54.696 2.11245 54.3265 2.06477C54.3265 1.88327 53.2912 1.93914 53.2912 1.78018C52.7514 1.78018 52.2464 1.49497 51.7371 1.49497C51.7371 1.42041 51.3167 1.25183 51.232 1.2454C51.0554 1.23357 50.8788 1.22175 50.7019 1.20993C50.6355 1.07401 50.5609 1.09546 50.4202 1.06752C50.4202 0.90279 49.5548 0.735249 49.3843 0.735249C49.3843 0.732059 48.1652 0.54517 48.0433 0.54517C47.7599 0.54517 46.3722 0.614338 46.3722 0.877441C46.1686 0.877441 46.1437 0.972618 45.9011 0.972618C45.9011 1.01171 45.2829 1.06752 45.1953 1.06752C45.1953 1.22819 44.3483 1.24859 44.3483 1.40001C44.077 1.40001 43.7197 1.61264 43.454 1.8758C43.3588 2.01754 43.0503 2.30253 42.889 2.30253C42.7773 2.53088 42.4185 2.67582 42.4185 2.92006C41.8682 3.29654 41.8448 4.12284 41.5005 4.70167C41.2003 5.20703 41.0915 5.58615 41.1194 6.151C41.1464 6.70085 41.06 7.11581 41.2205 7.69101C41.2867 7.92942 41.3362 8.1846 41.3362 8.38348C41.3928 8.38348 41.5246 8.76365 41.5246 8.85838C41.5773 8.85838 41.7588 9.26966 41.8537 9.33411C41.8537 9.44622 42.0219 9.70355 42.1359 9.76156C42.1359 9.85602 42.53 10.3876 42.6068 10.4263C42.696 10.5605 42.982 10.7637 43.0111 10.9203C43.0292 11.0187 43.1814 11.5668 43.03 11.5668C43.03 11.7638 42.9294 11.8464 42.889 12.0892C42.6943 12.0892 42.5124 13.0235 42.5124 13.182C42.383 13.182 42.344 14.1796 42.1832 14.1796C42.1832 14.8959 41.6488 15.3465 41.5479 16.0557C41.5063 16.3511 41.3826 16.5777 41.3826 16.7925C41.3228 16.7925 41.2417 17.0072 41.2417 17.077C41.1734 17.077 41.1002 17.3627 41.0066 17.41C41.0066 17.6097 40.751 17.7482 40.6302 17.9325C40.5116 17.9325 40.3703 18.0038 40.2063 18.0275C40.2063 18.1323 39.8615 18.0745 39.783 18.0745C39.783 18.1596 39.3138 18.1703 39.2181 18.1703C39.2181 18.1675 38.801 18.4699 38.7448 18.6138C38.6369 18.8909 38.698 19.1272 38.4064 19.3007C38.1445 19.4569 38.0166 19.5095 37.9705 19.7854C37.9241 20.0668 37.873 20.3926 37.8528 20.7352C37.7713 21.0299 37.8296 21.3549 37.8283 21.6562C37.8273 21.9921 37.7438 22.3167 37.7743 22.655C37.8047 22.996 37.9179 23.3163 38.0411 23.6333C38.0771 23.8448 38.1828 23.9583 38.1828 24.1079C38.3554 24.1954 38.4963 24.5837 38.5588 24.7738C38.7644 24.9381 38.8729 25.0835 39.0298 25.2957C39.0965 25.2957 39.2523 25.6759 39.3594 25.6759C39.3594 26.0056 39.389 26.2186 39.3594 26.5791C39.287 26.5791 39.251 28.2898 39.2364 28.4981C39.1876 29.1709 38.9827 29.7965 38.9827 30.379C38.9827 30.5046 38.799 31.757 38.7476 31.757C38.7476 32.2719 38.7382 32.9542 38.6763 33.5309C38.6678 33.6093 38.4916 34.1796 38.6533 34.1796C38.6691 34.5916 38.6848 35.0028 38.7006 35.4152C38.7514 35.4152 38.9925 36.3553 39.0298 36.5074C39.0668 36.5074 39.1711 36.8597 39.1711 36.9348C39.1897 36.9348 39.4532 37.3208 39.4532 37.4105C39.679 37.5592 39.6454 37.8158 39.8769 37.9325C39.8769 38.0908 40.1512 38.2579 40.2769 38.3599C40.7191 38.7175 40.9798 39.2813 41.5709 39.3935C42.014 39.4768 42.9835 39.4692 42.9835 39.5953C43.1614 39.6132 43.3769 39.6121 43.5012 39.5953C43.9485 39.6254 44.1636 39.6733 44.5367 39.4052C44.5367 39.2592 44.7839 38.8539 44.9131 38.7873C44.9131 38.5944 45.148 38.5446 45.148 38.3603C45.3085 38.2804 45.2676 37.8379 45.3836 37.8379C45.3836 37.6522 45.5719 37.4814 45.5719 37.2677C45.6493 37.2677 45.5251 35.8287 45.5251 35.6525C45.3367 35.6525 45.4048 34.4229 45.3955 34.2511C45.3791 33.9482 45.2897 33.5692 45.2897 33.277C45.2897 33.0294 45.148 32.7584 45.148 32.4985C45.148 32.1538 45.177 31.809 45.0993 31.4739C45.0408 31.2216 44.9777 30.9198 45.0542 30.6642C45.1195 30.6642 45.3367 29.4937 45.3367 29.3813C45.4729 29.3813 45.854 28.458 45.854 28.3366C46.0306 28.2479 46.1186 27.9225 46.3445 27.8806C46.6682 27.8205 46.6997 27.8115 46.984 28.0675C47.1572 28.2232 47.3866 28.7161 47.6428 28.7161C47.7328 28.8976 48.1001 29.1543 48.2735 29.3433C48.4574 29.543 48.6438 29.4894 48.8196 29.6665C48.9138 29.7622 49.1379 29.8656 49.2904 29.9039C49.4739 30.2815 50.0461 30.3607 50.2789 30.7115C50.4344 30.7115 50.8039 31.0536 50.9143 31.1866C51.0763 31.3827 51.3196 31.5362 51.5493 31.614C51.6371 31.7936 51.9019 31.8616 52.02 32.042C52.2717 32.2321 52.4335 32.3793 52.6517 32.5719C52.8141 32.7148 53.0505 33.087 53.244 33.087C53.407 33.2742 53.6293 33.6164 53.809 33.7045C53.9391 33.8821 54.1613 33.9869 54.232 34.1319C54.4594 34.3037 54.4977 34.5024 54.7031 34.6865C54.866 34.8325 55.1416 35.3197 55.3612 35.3197C55.3612 35.5151 55.7588 35.7164 55.8324 35.9371C56.0824 36.1663 56.3276 36.3828 56.5384 36.6496C56.7508 36.6496 56.9987 36.9982 57.1501 37.1721C57.4225 37.1721 57.5391 37.6479 57.8093 37.6479C57.8093 37.7149 58.1939 37.8605 58.3034 37.8846C58.7403 37.9823 58.9685 38.2199 59.5002 38.201C59.6734 38.1939 60.6801 38.2761 60.6801 38.0747C60.9389 38.0747 61.6258 37.7123 61.7163 37.3622C61.8661 37.3171 62.0159 37.2205 62.1395 37.2205C62.2392 37.0132 62.516 36.8783 62.516 36.6496C62.5617 36.5708 62.6652 36.3646 62.7039 36.3646C62.7616 36.1336 63.0809 35.9919 63.0809 35.7943C63.2301 35.6648 63.5984 35.3759 63.5984 35.1775C63.7199 35.0709 63.8806 35.0866 63.8806 34.8922C64.2254 34.6598 64.3044 34.1835 64.3044 33.7994C64.3044 33.1507 64.2575 32.346 64.2575 31.7092Z" fill="white"/>
</g>
<defs>
<clipPath id="clip0">
<rect width="295" height="46" fill="white"/>
</clipPath>
</defs>
</svg>
