<svg width="17" height="14" viewBox="0 0 17 14" fill="none" xmlns="http://www.w3.org/2000/svg">
<path fill-rule="evenodd" clip-rule="evenodd" d="M16.2697 1.04704C15.5975 1.42757 14.863 1.69501 14.0978 1.83788C13.0436 0.746418 11.3603 0.474799 9.99511 1.17591C8.62997 1.87702 7.92422 3.37564 8.27511 4.82827C5.53087 4.69924 2.97163 3.4556 1.23129 1.40539C0.927678 1.90352 0.768156 2.47106 0.769346 3.04887C0.768869 4.14736 1.33958 5.17289 2.28908 5.77976C1.74636 5.76214 1.21577 5.62025 0.741155 5.3658V5.40905C0.745327 6.9726 1.89189 8.31657 3.48206 8.62186C3.18938 8.69654 2.88783 8.73393 2.58508 8.73308C2.37021 8.73328 2.15577 8.71466 1.94438 8.67747C2.39736 10.0138 3.67868 10.9265 5.13634 10.9512C3.92349 11.8621 2.42964 12.3557 0.89236 12.3537C0.616219 12.3537 0.344563 12.3351 0.0773926 12.3104C1.64256 13.2719 3.46 13.7821 5.31573 13.7809C7.89274 13.8057 10.3725 12.8332 12.2 11.0808C14.0274 9.32851 15.0501 6.94277 15.039 4.45756L15.0274 4.03125C15.6994 3.57249 16.2784 2.99868 16.7355 2.33834C16.1114 2.60334 15.4501 2.77822 14.7731 2.85733C15.4815 2.44707 16.0128 1.80438 16.2697 1.04704Z" fill="#484848"/>
</svg>
