<svg width="15" height="15" viewBox="0 0 15 15" fill="none" xmlns="http://www.w3.org/2000/svg">
<path fill-rule="evenodd" clip-rule="evenodd" d="M10.7715 0.789429H4.45422C2.3068 0.790451 0.566246 2.46894 0.565186 4.53977V10.6318C0.566246 12.7026 2.3068 14.3811 4.45422 14.3821H10.7715C12.9189 14.3811 14.6595 12.7026 14.6605 10.6318V4.53977C14.6595 2.46894 12.9189 0.790451 10.7715 0.789429V0.789429ZM13.4112 10.6318C13.4087 12.0366 12.2283 13.1749 10.7715 13.1773H4.45422C2.99739 13.1749 1.81701 12.0366 1.81455 10.6318V4.53977C1.81701 3.1349 2.99739 1.99662 4.45422 1.99423H10.7715C12.2283 1.99662 13.4087 3.1349 13.4112 4.53977V10.6318ZM7.61286 4.08256C5.60654 4.08256 3.9801 5.651 3.9801 7.58577C3.9801 9.52053 5.60654 11.089 7.61286 11.089C9.61917 11.089 11.2456 9.52053 11.2456 7.58577C11.2449 5.65128 9.61888 4.08325 7.61286 4.08256ZM7.61286 9.88417C6.29654 9.88417 5.22946 8.85514 5.22946 7.58577C5.22946 6.3164 6.29654 5.28737 7.61286 5.28737C8.92917 5.28737 9.99625 6.3164 9.99625 7.58577C9.99413 8.85429 8.92829 9.88212 7.61286 9.88417ZM11.3994 3.06311C10.894 3.06447 10.4846 3.45924 10.4832 3.94664C10.4843 4.18068 10.581 4.40488 10.7523 4.57066C10.9228 4.73785 11.1562 4.83144 11.3994 4.83016C11.9049 4.8288 12.3143 4.43403 12.3157 3.94664C12.317 3.71213 12.22 3.48706 12.0466 3.32261C11.8747 3.1574 11.6421 3.06417 11.3994 3.06311Z" fill="#484848"/>
</svg>
