<svg width="18" height="22" viewBox="0 0 18 22" fill="none" xmlns="http://www.w3.org/2000/svg">
<path d="M12.75 7.25H14.625C15.1223 7.25 15.5992 7.44754 15.9508 7.79917C16.3025 8.15081 16.5 8.62772 16.5 9.125V18.875C16.5 19.3723 16.3025 19.8492 15.9508 20.2008C15.5992 20.5525 15.1223 20.75 14.625 20.75H3.375C2.87772 20.75 2.40081 20.5525 2.04917 20.2008C1.69754 19.8492 1.5 19.3723 1.5 18.875V9.125C1.5 8.62772 1.69754 8.15081 2.04917 7.79917C2.40081 7.44754 2.87772 7.25 3.375 7.25H5.25" stroke="black" stroke-width="1.5" stroke-linecap="round" stroke-linejoin="round"/>
<path d="M5.25 11.75L9 15.5L12.75 11.75" stroke="black" stroke-width="1.5" stroke-linecap="round" stroke-linejoin="round"/>
<path d="M9 1.25V14.75" stroke="black" stroke-width="1.5" stroke-linecap="round" stroke-linejoin="round"/>
</svg>
