<svg width="18" height="15" viewBox="0 0 18 15" fill="none" xmlns="http://www.w3.org/2000/svg">
<path fill-rule="evenodd" clip-rule="evenodd" d="M15.2012 0.792606C12.8849 0.718464 11.3167 1.94181 10.4966 4.46263C10.8881 4.30605 11.3068 4.2222 11.7306 4.21549C12.5757 4.21549 12.9479 4.66034 12.8492 5.55622C12.6605 6.41446 12.2786 7.22226 11.7306 7.92258C11.0322 8.96057 10.5098 9.47956 10.1634 9.47956C9.71494 9.47956 9.30361 8.67636 8.92945 7.07613C8.80387 6.60656 8.58005 5.40588 8.258 3.47407C7.95687 1.68849 7.16112 0.848213 5.86691 0.965604C5.31976 1.01503 4.49924 1.48666 3.40535 2.38048C2.60705 3.06011 1.7972 3.74386 0.97583 4.43174L1.75876 5.38322C2.15477 5.07616 2.59507 4.82639 3.06578 4.64181C3.639 4.64181 4.17462 5.48826 4.67265 7.18116C5.12114 8.73814 5.56963 10.2889 6.01812 11.8459C6.68637 13.5388 7.5103 14.3853 8.47968 14.3853C10.0472 14.3853 11.9642 12.9972 14.2306 10.221C16.4205 7.55805 17.5524 5.46148 17.6263 3.93128C17.7294 1.8862 16.9202 0.835856 15.2012 0.792606Z" fill="#484848"/>
</svg>
