<svg width="15" height="14" viewBox="0 0 15 14" fill="none" xmlns="http://www.w3.org/2000/svg">
<path fill-rule="evenodd" clip-rule="evenodd" d="M3.84991 2.19307C3.85661 2.58351 3.69265 2.95865 3.39815 3.22666C3.10365 3.49467 2.7058 3.63082 2.30199 3.60177C1.50939 3.55538 0.900673 2.90644 0.932037 2.1413C0.963401 1.37616 1.62333 0.775585 2.41726 0.789672C3.21118 0.803758 3.84775 1.42734 3.84991 2.19307ZM0.874512 13.7716V4.70772H3.7506V13.7716H0.874512ZM5.47728 7.60543C5.47728 6.46859 5.43692 5.52328 5.39783 4.70772H7.89655L8.0311 5.98049H8.08876C8.70946 5.04258 9.79278 4.4851 10.9463 4.51001C12.8299 4.51001 14.2587 5.75188 14.2587 8.42099V13.7716H11.3819V8.75463C11.3819 7.58072 10.9655 6.78987 9.92116 6.78987C9.24788 6.80093 8.65606 7.22276 8.44755 7.84021C8.37016 8.06927 8.33758 8.3102 8.35145 8.55074V13.7716H5.47664V7.60543H5.47728Z" fill="#484848"/>
</svg>
