<svg width="12" height="7" viewBox="0 0 12 7" fill="none" xmlns="http://www.w3.org/2000/svg">
<path fill-rule="evenodd" clip-rule="evenodd" d="M11.8801 5.72521L6.27645 0.120316C6.19639 0.0401467 6.10428 -1.06731e-06 6.00008 -1.04909e-06C5.89589 -1.03087e-06 5.80361 0.0401468 5.72351 0.120316L0.120284 5.72521C0.0400111 5.80551 1.03118e-06 5.89764 1.04941e-06 6.00191C1.06763e-06 6.10613 0.0401375 6.19839 0.120284 6.27852L0.721362 6.87972C0.801509 6.95989 0.893743 6.99996 0.997938 6.99996C1.10213 6.99996 1.19437 6.95989 1.27451 6.87972L6.00008 2.1529L10.7258 6.88002C10.8059 6.96019 10.8982 7 11.0022 7C11.1066 7 11.1988 6.95993 11.2789 6.88002L11.8801 6.27856C11.9602 6.19843 12 6.10613 12 6.00195C12 5.89764 11.9602 5.80538 11.8801 5.72521Z" fill="black"/>
</svg>
