<svg width="90" height="13" viewBox="0 0 90 13" fill="none" xmlns="http://www.w3.org/2000/svg">
<path opacity="0.5" fill-rule="evenodd" clip-rule="evenodd" d="M22.5308 10.3359L16.7856 10.2638L16.7929 5.87448L16.8013 2.84645L16.8065 1.84261L16.8097 1.55924C16.8097 0.942916 16.3487 1.00149 16.3487 1.00149H14.4699C14.161 1.03904 14.0063 1.18574 14.0058 1.44509L14 10.2638C14 11.7723 15.2806 12.9955 16.8605 12.9955H22.5308C22.8349 13.0285 22.9896 12.8808 22.9949 12.5524V10.7795C23.031 10.5547 22.8763 10.4075 22.5308 10.3359Z" fill="black"/>
<path opacity="0.5" fill-rule="evenodd" clip-rule="evenodd" d="M12.4973 8.24174H10.3622C10.1817 8.25328 10.0459 8.32669 9.9562 8.45988C9.2793 9.51442 8.07471 10.215 6.70252 10.215C4.58693 10.215 2.87251 8.55218 2.87251 6.50026C2.87251 4.44887 4.58693 2.78605 6.70252 2.78605C8.07471 2.78605 9.2793 3.48558 9.9562 4.53959C10.086 4.69061 10.2211 4.76298 10.3622 4.75878H12.4973C12.9185 4.72784 13.0677 4.51652 12.9428 4.12428C11.9653 1.71054 9.53989 0 6.70252 0C3.00065 0 0 2.91033 0 6.50026C0 10.0902 3.00065 13 6.70252 13C9.53989 13 11.9653 11.29 12.9428 8.87572C13.0942 8.43839 12.945 8.22706 12.4973 8.24174Z" fill="black"/>
<path opacity="0.5" fill-rule="evenodd" clip-rule="evenodd" d="M53.8083 6.65622L58.9891 1.74631C59.3697 1.26949 59.2539 1.02088 58.6433 1H56.2867C56.1377 1.02635 56.0235 1.06961 55.9446 1.12977L50.1499 6.45982C49.9493 6.70842 49.9504 6.91625 50.151 7.08182L56.4917 12.8683C56.5819 12.9702 56.695 13.013 56.8315 12.9966H59.3659C60.1179 12.9966 60.1581 12.7808 59.7117 12.2513L53.8083 6.65622Z" fill="black"/>
<path opacity="0.5" fill-rule="evenodd" clip-rule="evenodd" d="M49.4692 8.24174H47.3389C47.1776 8.22077 47.0428 8.29418 46.9338 8.45988C46.259 9.51442 45.0566 10.215 43.6875 10.215C41.5772 10.215 39.8661 8.55218 39.8661 6.50026C39.8661 4.44887 41.5772 2.78605 43.6875 2.78605C45.0566 2.78605 46.2584 3.48558 46.9338 4.53959C47.0234 4.70582 47.1588 4.77871 47.3389 4.75878H49.4692C49.9326 4.79234 50.0815 4.58154 49.9137 4.12428C48.9384 1.71054 46.5184 0 43.6875 0C39.9944 0 37 2.91033 37 6.50026C37 10.0902 39.9944 13 43.6875 13C46.5184 13 48.9384 11.29 49.9137 8.87572C50.1138 8.41898 49.966 8.20818 49.4692 8.24174Z" fill="black"/>
<path opacity="0.5" fill-rule="evenodd" clip-rule="evenodd" d="M29.5001 10.2145C27.4487 10.2145 25.7859 8.55166 25.7859 6.49974C25.7859 4.44835 27.4487 2.78553 29.5001 2.78553C31.5519 2.78553 33.2142 4.44835 33.2142 6.49974C33.2142 8.55166 31.5519 10.2145 29.5001 10.2145ZM29.5 0C25.9097 0 23 2.90981 23 6.49974C23 10.0902 25.9097 13 29.5 13C33.0898 13 36 10.0902 36 6.49974C36 2.90981 33.0898 0 29.5 0Z" fill="black"/>
<path opacity="0.5" fill-rule="evenodd" clip-rule="evenodd" d="M72.4997 8.92267C71.162 8.92267 70.0768 7.83848 70.0768 6.50025C70.0768 5.16104 71.162 4.07685 72.4997 4.07685C73.8379 4.07685 74.923 5.16104 74.923 6.50025C74.923 7.83848 73.8379 8.92267 72.4997 8.92267ZM72.4998 3C70.5673 3 69 4.56681 69 6.50024C69 8.4327 70.5673 10 72.4998 10C74.4327 10 76 8.4327 76 6.50024C76 4.56681 74.4327 3 72.4998 3Z" fill="black"/>
<path opacity="0.5" fill-rule="evenodd" clip-rule="evenodd" d="M86.235 6.28431L89.5628 3H88.0349L85.1649 5.83326V3.15673C85.1649 3.12095 85.1707 3.08668 85.1818 3.05493H84.0037L84 3.15673V10H85.1649V6.95054H85.2358L88.326 10H90L86.235 6.28431Z" fill="black"/>
<path opacity="0.5" fill-rule="evenodd" clip-rule="evenodd" d="M78.2324 5.51207C78.2324 4.71802 78.9305 4.07445 79.7913 4.07445C80.6532 4.07445 81.3502 4.71802 81.3502 5.51207C81.3502 6.30613 80.6532 6.9497 79.7913 6.9497C78.9305 6.9497 78.2324 6.30613 78.2324 5.51207ZM82.5288 5.52612C82.5288 4.13114 81.3023 3 79.7886 3C79.2004 3 78.6563 3.17255 78.2101 3.46349C78.2118 3.21068 78.2134 3.05718 78.215 3.05317H77.0038L77 10H78.1976C78.1976 10 78.1987 8.91551 78.1998 7.6043L81.2784 10H83L80.5068 7.96245C81.6713 7.67152 82.5288 6.69287 82.5288 5.52612Z" fill="black"/>
<path opacity="0.5" fill-rule="evenodd" clip-rule="evenodd" d="M67.5688 3C67.5666 3.02133 66.4165 6.09847 65.6436 8.1653C64.915 6.32247 63.9006 3.75125 63.8984 3.72992L63.2882 5.63522L63.2839 5.63471C63.2822 5.65198 62.8104 6.93455 62.3791 8.10485C61.5792 6.03853 60.4112 3.02133 60.409 3H59L61.6986 9.94819C61.6862 9.98121 61.6792 10 61.6792 10H61.7186H63.1136H63.1428L64.0027 7.67412L64.9058 10H64.9572H66.3695H66.3754L69 3H67.5688Z" fill="black"/>
</svg>
