<svg width="170" height="25" viewBox="0 0 170 25" fill="none" xmlns="http://www.w3.org/2000/svg">
<g clip-path="url(#clip0)">
<rect width="170" height="24.2763" fill="white"/>
<path d="M108.645 0.555908H102.871V23.4191H108.645V0.555908Z" fill="#284FB2"/>
<path d="M81.8443 0.772461L74.5529 23.419H68.1659L63.2862 8.22397L58.397 23.419H52.01L44.728 0.772461H50.5875L55.2035 15.1103L59.81 0.772461H66.7529L71.3594 15.1103L75.9754 0.772461H81.8443Z" fill="#284FB2"/>
<path d="M0 0.555908H5.77469V18.4075H16.2407V23.4191H5.77469H0V18.4075V0.555908Z" fill="#284FB2"/>
<path d="M117.519 12.9437V23.4191H111.754V0.555908H117.519V9.28859L124.151 0.555908H131.631L123.624 11.0879L132.733 23.4191H125.253L117.519 12.9437Z" fill="#284FB2"/>
<path d="M139.28 0.555908H133.505V23.4191H139.28V0.555908Z" fill="#284FB2"/>
<path d="M147.862 12.9437V23.4191H142.097V0.555908H147.862V9.28859L154.494 0.555908H161.974L153.966 11.0879L163.076 23.4191H155.596L147.862 12.9437Z" fill="#284FB2"/>
<path d="M170.01 0.555908H164.235V23.4191H170.01V0.555908Z" fill="#284FB2"/>
<path fill-rule="evenodd" clip-rule="evenodd" d="M16.0337 10.8899C16.0337 4.87033 20.9134 0 26.9236 0H29.6367C34.5541 0 38.7085 3.25945 40.0556 7.73412H34.1585C33.0469 5.70874 30.899 4.33337 28.4215 4.33337H28.3273C24.7193 4.33337 21.799 7.25368 21.799 10.8617V13.2545C21.799 16.8625 24.7193 19.7828 28.3273 19.7828H28.4215C30.899 19.7828 33.0563 18.4074 34.1585 16.3726H40.0556C38.6991 20.8473 34.5447 24.1067 29.6367 24.1067H26.9236C20.9134 24.1067 16.0337 19.2364 16.0337 13.2168V10.8899Z" fill="#284FB2"/>
<path fill-rule="evenodd" clip-rule="evenodd" d="M82.3625 1.86525C82.3625 1.86525 90.5488 -2.15725 97.1431 1.78989C97.1431 1.78989 100.365 3.83411 100.289 9.83488L100.365 23.664H95.1742V13.132C95.1742 13.132 86.1024 12.3219 85.8858 16.3538C85.6691 20.3763 89.4749 19.8676 89.4749 19.8676C89.4749 19.8676 92.6873 19.5096 93.8554 17.3806V21.8364C93.8554 21.8364 91.1612 24.5401 87.2046 24.248C83.2481 23.956 81.0625 21.1016 81.0625 21.1016C81.0625 21.1016 79.0183 18.6241 80.4031 14.4509C81.7879 10.2776 86.9879 9.69358 86.9879 9.69358C86.9879 9.69358 89.1075 9.32618 94.3735 9.40154C94.3735 9.40154 94.8163 5.8218 92.4706 5.08702C90.1343 4.35223 86.6205 4.93629 86.6205 4.93629C86.6205 4.93629 83.4082 5.74644 80.9872 7.49863L82.3625 1.86525Z" fill="#284FB2"/>
</g>
<defs>
<clipPath id="clip0">
<rect width="170" height="24.2763" fill="white"/>
</clipPath>
</defs>
</svg>
