<svg width="12" height="7" viewBox="0 0 12 7" fill="none" xmlns="http://www.w3.org/2000/svg">
<path fill-rule="evenodd" clip-rule="evenodd" d="M0.119862 1.27479L5.72355 6.87968C5.80361 6.95985 5.89572 7 5.99992 7C6.10411 7 6.19639 6.95985 6.27649 6.87968L11.8797 1.27479C11.96 1.19449 12 1.10236 12 0.998092C12 0.893868 11.9599 0.801608 11.8797 0.721481L11.2786 0.120275C11.1985 0.0401057 11.1063 4.18835e-05 11.0021 4.18744e-05C10.8979 4.18653e-05 10.8056 0.0401057 10.7255 0.120275L5.99992 4.8471L1.27418 0.119979C1.19407 0.0398097 1.10179 -9.52751e-07 0.997768 -9.61846e-07C0.893405 -9.70969e-07 0.801172 0.0400624 0.721067 0.119979L0.119904 0.721438C0.0397993 0.801565 5.33815e-07 0.893867 5.24707e-07 0.998049C-4.14461e-05 1.10236 0.0397573 1.19462 0.119862 1.27479Z" fill="black"/>
</svg>
